<svg class="main-svg" xmlns="http://www.w3.org/2000/svg" xmlns:xlink="http://www.w3.org/1999/xlink" width="2000" height="800" style="" viewBox="0 0 2000 800"><rect x="0" y="0" width="2000" height="800" style="fill: rgb(255, 255, 255); fill-opacity: 1;"/><defs id="defs-c0c186"><g class="clips"><clipPath id="clipc0c186xyplot" class="plotclip"><rect width="1833" height="660"/></clipPath><clipPath class="axesclip" id="clipc0c186x"><rect x="87" y="0" width="1833" height="800"/></clipPath><clipPath class="axesclip" id="clipc0c186y"><rect x="0" y="60" width="2000" height="660"/></clipPath><clipPath class="axesclip" id="clipc0c186xy"><rect x="87" y="60" width="1833" height="660"/></clipPath></g><g class="gradients"/><g class="patterns"/></defs><g class="bglayer"><rect class="bg" x="87" y="60" width="1833" height="660" style="fill: rgb(229, 236, 246); fill-opacity: 1; stroke-width: 0;"/></g><g class="layer-below"><g class="imagelayer"/><g class="shapelayer"/></g><g class="cartesianlayer"><g class="subplot xy"><g class="layer-subplot"><g class="shapelayer"/><g class="imagelayer"/></g><g class="minor-gridlayer"><g class="x"/><g class="y"/></g><g class="gridlayer"><g class="x"><path class="xgrid crisp" transform="translate(270.3,0)" d="M0,60v660" style="stroke: rgb(255, 255, 255); stroke-opacity: 1; stroke-width: 1px;"/><path class="xgrid crisp" transform="translate(453.6,0)" d="M0,60v660" style="stroke: rgb(255, 255, 255); stroke-opacity: 1; stroke-width: 1px;"/><path class="xgrid crisp" transform="translate(636.9,0)" d="M0,60v660" style="stroke: rgb(255, 255, 255); stroke-opacity: 1; stroke-width: 1px;"/><path class="xgrid crisp" transform="translate(820.2,0)" d="M0,60v660" style="stroke: rgb(255, 255, 255); stroke-opacity: 1; stroke-width: 1px;"/><path class="xgrid crisp" transform="translate(1003.5,0)" d="M0,60v660" style="stroke: rgb(255, 255, 255); stroke-opacity: 1; stroke-width: 1px;"/><path class="xgrid crisp" transform="translate(1186.8,0)" d="M0,60v660" style="stroke: rgb(255, 255, 255); stroke-opacity: 1; stroke-width: 1px;"/><path class="xgrid crisp" transform="translate(1370.1,0)" d="M0,60v660" style="stroke: rgb(255, 255, 255); stroke-opacity: 1; stroke-width: 1px;"/><path class="xgrid crisp" transform="translate(1553.4,0)" d="M0,60v660" style="stroke: rgb(255, 255, 255); stroke-opacity: 1; stroke-width: 1px;"/><path class="xgrid crisp" transform="translate(1736.7,0)" d="M0,60v660" style="stroke: rgb(255, 255, 255); stroke-opacity: 1; stroke-width: 1px;"/></g><g class="y"><path class="ygrid crisp" transform="translate(0,646.06)" d="M87,0h1833" style="stroke: rgb(255, 255, 255); stroke-opacity: 1; stroke-width: 1px;"/><path class="ygrid crisp" transform="translate(0,569.8)" d="M87,0h1833" style="stroke: rgb(255, 255, 255); stroke-opacity: 1; stroke-width: 1px;"/><path class="ygrid crisp" transform="translate(0,493.54)" d="M87,0h1833" style="stroke: rgb(255, 255, 255); stroke-opacity: 1; stroke-width: 1px;"/><path class="ygrid crisp" transform="translate(0,417.28)" d="M87,0h1833" style="stroke: rgb(255, 255, 255); stroke-opacity: 1; stroke-width: 1px;"/><path class="ygrid crisp" transform="translate(0,341.02)" d="M87,0h1833" style="stroke: rgb(255, 255, 255); stroke-opacity: 1; stroke-width: 1px;"/><path class="ygrid crisp" transform="translate(0,264.76)" d="M87,0h1833" style="stroke: rgb(255, 255, 255); stroke-opacity: 1; stroke-width: 1px;"/><path class="ygrid crisp" transform="translate(0,188.5)" d="M87,0h1833" style="stroke: rgb(255, 255, 255); stroke-opacity: 1; stroke-width: 1px;"/><path class="ygrid crisp" transform="translate(0,112.24000000000001)" d="M87,0h1833" style="stroke: rgb(255, 255, 255); stroke-opacity: 1; stroke-width: 1px;"/></g></g><g class="zerolinelayer"><path class="xzl zl crisp" transform="translate(87,0)" d="M0,60v660" style="stroke: rgb(255, 255, 255); stroke-opacity: 1; stroke-width: 2px;"/></g><g class="layer-between"><g class="shapelayer"/><g class="imagelayer"/></g><path class="xlines-below"/><path class="ylines-below"/><g class="overlines-below"/><g class="xaxislayer-below"/><g class="yaxislayer-below"/><g class="overaxes-below"/><g class="overplot"><g class="xy" transform="translate(87,60)" clip-path="url(#clipc0c186xyplot)"><g class="scatterlayer mlayer"><g class="trace scatter trace7bbfdb" style="stroke-miterlimit: 2; opacity: 1;"><g class="fills"/><g class="errorbars"/><g class="lines"><path class="js-line" d="M0,434.79L18.33,531.85L36.66,508.89L54.99,474.16L73.32,470.67L91.65,473.98L109.98,496.65L128.31,520.64L146.64,480.63L164.97,479.63L183.3,431.02L201.63,437.66L219.96,416.58L238.29,476.62L256.62,464.52L274.95,432.94L293.28,399L311.61,387.6L329.94,352.04L348.27,337.61L366.6,369.99L384.93,391.87L403.26,397.11L421.59,392.31L439.92,409.79L458.25,377.11L476.58,366.86L494.91,345.24L513.24,306.98L531.57,323.29L549.9,374.73L568.23,350.45L586.56,398.9L604.89,347.69L623.22,359.48L641.55,339.8L659.88,370.97L678.21,385.6L696.54,409.52L714.87,385.05L733.2,342.17L751.53,391.24L769.86,349.2L788.19,377.21L806.52,373.81L824.85,375.5L843.18,370.25L861.51,386.52L879.84,386.92L898.17,364.52L916.5,378.58L934.83,336.94L953.16,370.23L971.49,377.3L989.82,307.33L1008.15,319.64L1026.48,312.85L1044.81,306.18L1063.14,280.99L1081.47,274.2L1099.8,284.71L1118.13,271.16L1136.46,263.01L1154.79,268.99L1173.12,233.16L1191.45,252.35L1209.78,220.78L1228.11,229.98L1246.44,211.85L1264.77,220.02L1283.1,201.56L1301.43,201.2L1319.76,189.71L1338.09,167.4L1356.42,167.43L1374.75,162.57L1393.08,148.91L1411.41,140.53L1429.74,135.43L1448.07,132.95L1466.4,113.64L1484.73,115.92L1503.06,106.22L1539.72,92.21L1558.05,84.15L1576.38,68.55L1594.71,69.7L1613.04,67.98L1631.37,63.78L1649.7,49.18L1658.86,61.77L1668.03,47.9L1677.2,54.57L1686.36,39.81L1695.53,36.85L1704.69,50L1713.86,38.89L1723.02,37.06L1732.18,43.47L1741.35,40.2L1750.51,48.3L1759.68,52.03L1768.84,59.86L1778.01,49.03L1787.18,65.55L1796.34,82.68L1805.51,85.14L1814.67,96.57L1823.84,124.18L1833,157.92" style="vector-effect: none; fill: none; stroke: rgb(0, 0, 255); stroke-opacity: 1; stroke-width: 2px; opacity: 1;"/></g><g class="points"/><g class="text"/></g><g class="trace scatter trace7c255e" style="stroke-miterlimit: 2;"><g class="fills"><g><path class="js-fill" d="M0,372.19L18.33,436.69L36.66,409.88L54.99,374.96L73.32,393.4L91.65,374.45L109.98,399.36L128.31,419.39L146.64,399.53L164.97,405.05L183.3,375.15L201.63,368.67L219.96,336.31L238.29,401.06L256.62,397.09L274.95,370.47L293.28,331.61L311.61,319.69L329.94,314.99L348.27,269.99L366.6,306.66L384.93,326.32L403.26,321.85L421.59,316.26L439.92,336.96L458.25,310.28L476.58,296.63L494.91,279.24L513.24,244.22L531.57,262.53L549.9,302.79L568.23,296.01L586.56,335.38L604.89,275.92L623.22,299.88L641.55,282.32L659.88,294.26L678.21,318.02L696.54,335.18L714.87,308.22L733.2,277.77L751.53,320.64L769.86,290.13L788.19,318.26L806.52,301.75L824.85,321.89L843.18,333.56L861.51,323.12L879.84,322.56L898.17,303.77L916.5,328.8L934.83,301.23L953.16,316.5L971.49,321.69L989.82,277.2L1008.15,296.47L1026.48,285.97L1044.81,282.19L1063.14,260.98L1081.47,247.76L1099.8,263.16L1118.13,255.39L1136.46,255.55L1154.79,252.64L1173.12,219.57L1191.45,231.94L1209.78,212.67L1228.11,219.91L1246.44,201.76L1264.77,210.6L1283.1,184.53L1301.43,189.78L1319.76,180.39L1338.09,157.35L1356.42,155.72L1374.75,148.69L1393.08,139.04L1411.41,133L1429.74,128.57L1448.07,125.8L1466.4,102.56L1484.73,105.09L1503.06,98.98L1521.39,89.89L1539.72,85.19L1558.05,76.1L1576.38,62.49L1594.71,60.98L1613.04,63.01L1631.37,59.39L1649.7,44.64L1658.86,56.48L1668.03,43.09L1677.2,49.64L1686.36,35.36L1695.53,33L1704.69,41.8L1713.86,35.25L1723.02,33.56L1732.18,38.74L1741.35,35.04L1750.51,44.13L1759.68,48.43L1768.84,55.33L1778.01,44.75L1796.34,77.74L1805.51,79.47L1814.67,90.9L1823.84,118.58L1833,152.62L1833,163.22L1823.84,129.77L1814.67,102.24L1805.51,90.82L1796.34,87.62L1778.01,53.3L1768.84,64.39L1759.68,55.62L1750.51,52.47L1741.35,45.36L1732.18,48.19L1723.02,40.55L1713.86,42.53L1704.69,58.21L1695.53,40.7L1686.36,44.26L1677.2,59.49L1668.03,52.7L1658.86,67.07L1649.7,53.71L1631.37,68.16L1613.04,72.96L1594.71,78.41L1576.38,74.6L1558.05,92.2L1539.72,99.22L1521.39,108.75L1503.06,113.46L1484.73,126.74L1466.4,124.72L1448.07,140.1L1429.74,142.3L1411.41,148.05L1393.08,158.78L1374.75,176.46L1356.42,179.14L1338.09,177.45L1319.76,199.04L1301.43,212.62L1283.1,218.58L1264.77,229.43L1246.44,221.94L1228.11,240.05L1209.78,228.88L1191.45,272.76L1173.12,246.75L1154.79,285.34L1136.46,270.47L1118.13,286.94L1099.8,306.27L1081.47,300.65L1063.14,301L1044.81,330.16L1026.48,339.72L1008.15,342.82L989.82,337.47L971.49,432.91L953.16,423.96L934.83,372.66L916.5,428.36L898.17,425.28L879.84,451.27L861.51,449.92L843.18,406.94L824.85,429.1L806.52,445.87L788.19,436.15L769.86,408.27L751.53,461.85L733.2,406.56L714.87,461.89L696.54,483.86L678.21,453.18L659.88,447.69L641.55,397.27L623.22,419.09L604.89,419.46L586.56,462.43L568.23,404.88L549.9,446.66L531.57,384.05L513.24,369.74L494.91,411.23L476.58,437.1L458.25,443.94L439.92,482.63L421.59,468.37L403.26,472.37L384.93,457.43L366.6,433.32L348.27,405.22L329.94,389.1L311.61,455.51L293.28,466.38L274.95,495.42L256.62,531.94L238.29,552.17L219.96,496.86L201.63,506.65L183.3,486.9L164.97,554.21L146.64,561.73L128.31,621.9L109.98,593.94L91.65,573.51L73.32,547.94L54.99,573.36L36.66,607.9L18.33,627L0,497.4Z" style="fill: rgb(211, 211, 211); fill-opacity: 0.5; stroke-width: 0;"/></g></g><g class="errorbars"/><g class="lines"><path class="js-line" d="M0,497.4L18.33,627L36.66,607.9L54.99,573.36L73.32,547.94L91.65,573.51L109.98,593.94L128.31,621.9L146.64,561.73L164.97,554.21L183.3,486.9L201.63,506.65L219.96,496.86L238.29,552.17L256.62,531.94L274.95,495.42L293.28,466.38L311.61,455.51L329.94,389.1L348.27,405.22L366.6,433.32L384.93,457.43L403.26,472.37L421.59,468.37L439.92,482.63L458.25,443.94L476.58,437.1L494.91,411.23L513.24,369.74L531.57,384.05L549.9,446.66L568.23,404.88L586.56,462.43L604.89,419.46L623.22,419.09L641.55,397.27L659.88,447.69L678.21,453.18L696.54,483.86L714.87,461.89L733.2,406.56L751.53,461.85L769.86,408.27L788.19,436.15L806.52,445.87L824.85,429.1L843.18,406.94L861.51,449.92L879.84,451.27L898.17,425.28L916.5,428.36L934.83,372.66L953.16,423.96L971.49,432.91L989.82,337.47L1008.15,342.82L1026.48,339.72L1044.81,330.16L1063.14,301L1081.47,300.65L1099.8,306.27L1118.13,286.94L1136.46,270.47L1154.79,285.34L1173.12,246.75L1191.45,272.76L1209.78,228.88L1228.11,240.05L1246.44,221.94L1264.77,229.43L1283.1,218.58L1301.43,212.62L1319.76,199.04L1338.09,177.45L1356.42,179.14L1374.75,176.46L1393.08,158.78L1411.41,148.05L1429.74,142.3L1448.07,140.1L1466.4,124.72L1484.73,126.74L1503.06,113.46L1521.39,108.75L1539.72,99.22L1558.05,92.2L1576.38,74.6L1594.71,78.41L1613.04,72.96L1631.37,68.16L1649.7,53.71L1658.86,67.07L1668.03,52.7L1677.2,59.49L1686.36,44.26L1695.53,40.7L1704.69,58.21L1713.86,42.53L1723.02,40.55L1732.18,48.19L1741.35,45.36L1750.51,52.47L1759.68,55.62L1768.84,64.39L1778.01,53.3L1796.34,87.62L1805.51,90.82L1814.67,102.24L1823.84,129.77L1833,163.22" style="vector-effect: none; fill: none; stroke: rgb(0, 0, 255); stroke-opacity: 1; stroke-width: 2px; opacity: 1;"/></g><g class="points"/><g class="text"/></g><g class="trace scatter tracecfa8fe" style="stroke-miterlimit: 2;"><g class="fills"/><g class="errorbars"/><g class="lines"><path class="js-line" d="M0,372.19L18.33,436.69L36.66,409.88L54.99,374.96L73.32,393.4L91.65,374.45L109.98,399.36L128.31,419.39L146.64,399.53L164.97,405.05L183.3,375.15L201.63,368.67L219.96,336.31L238.29,401.06L256.62,397.09L274.95,370.47L293.28,331.61L311.61,319.69L329.94,314.99L348.27,269.99L366.6,306.66L384.93,326.32L403.26,321.85L421.59,316.26L439.92,336.96L458.25,310.28L476.58,296.63L494.91,279.24L513.24,244.22L531.57,262.53L549.9,302.79L568.23,296.01L586.56,335.38L604.89,275.92L623.22,299.88L641.55,282.32L659.88,294.26L678.21,318.02L696.54,335.18L714.87,308.22L733.2,277.77L751.53,320.64L769.86,290.13L788.19,318.26L806.52,301.75L824.85,321.89L843.18,333.56L861.51,323.12L879.84,322.56L898.17,303.77L916.5,328.8L934.83,301.23L953.16,316.5L971.49,321.69L989.82,277.2L1008.15,296.47L1026.48,285.97L1044.81,282.19L1063.14,260.98L1081.47,247.76L1099.8,263.16L1118.13,255.39L1136.46,255.55L1154.79,252.64L1173.12,219.57L1191.45,231.94L1209.78,212.67L1228.11,219.91L1246.44,201.76L1264.77,210.6L1283.1,184.53L1301.43,189.78L1319.76,180.39L1338.09,157.35L1356.42,155.72L1374.75,148.69L1393.08,139.04L1411.41,133L1429.74,128.57L1448.07,125.8L1466.4,102.56L1484.73,105.09L1503.06,98.98L1521.39,89.89L1539.72,85.19L1558.05,76.1L1576.38,62.49L1594.71,60.98L1613.04,63.01L1631.37,59.39L1649.7,44.64L1658.86,56.48L1668.03,43.09L1677.2,49.64L1686.36,35.36L1695.53,33L1704.69,41.8L1713.86,35.25L1723.02,33.56L1732.18,38.74L1741.35,35.04L1750.51,44.13L1759.68,48.43L1768.84,55.33L1778.01,44.75L1796.34,77.74L1805.51,79.47L1814.67,90.9L1823.84,118.58L1833,152.62" style="vector-effect: none; fill: none; stroke: rgb(0, 0, 255); stroke-opacity: 1; stroke-width: 2px; opacity: 1;"/></g><g class="points"/><g class="text"/></g></g></g></g><g class="zerolinelayer-above"/><path class="xlines-above crisp" d="M0,0" style="fill: none;"/><path class="ylines-above crisp" d="M0,0" style="fill: none;"/><g class="overlines-above"/><g class="xaxislayer-above"><g class="xtick"><text text-anchor="middle" x="0" y="741" transform="translate(87,0)" style="font-family: 'Open Sans', verdana, arial, sans-serif; font-size: 20px; fill: rgb(42, 63, 95); fill-opacity: 1; white-space: pre;">0</text></g><g class="xtick"><text text-anchor="middle" x="0" y="741" style="font-family: 'Open Sans', verdana, arial, sans-serif; font-size: 20px; fill: rgb(42, 63, 95); fill-opacity: 1; white-space: pre;" transform="translate(270.3,0)">0.1</text></g><g class="xtick"><text text-anchor="middle" x="0" y="741" style="font-family: 'Open Sans', verdana, arial, sans-serif; font-size: 20px; fill: rgb(42, 63, 95); fill-opacity: 1; white-space: pre;" transform="translate(453.6,0)">0.2</text></g><g class="xtick"><text text-anchor="middle" x="0" y="741" style="font-family: 'Open Sans', verdana, arial, sans-serif; font-size: 20px; fill: rgb(42, 63, 95); fill-opacity: 1; white-space: pre;" transform="translate(636.9,0)">0.3</text></g><g class="xtick"><text text-anchor="middle" x="0" y="741" style="font-family: 'Open Sans', verdana, arial, sans-serif; font-size: 20px; fill: rgb(42, 63, 95); fill-opacity: 1; white-space: pre;" transform="translate(820.2,0)">0.4</text></g><g class="xtick"><text text-anchor="middle" x="0" y="741" style="font-family: 'Open Sans', verdana, arial, sans-serif; font-size: 20px; fill: rgb(42, 63, 95); fill-opacity: 1; white-space: pre;" transform="translate(1003.5,0)">0.5</text></g><g class="xtick"><text text-anchor="middle" x="0" y="741" style="font-family: 'Open Sans', verdana, arial, sans-serif; font-size: 20px; fill: rgb(42, 63, 95); fill-opacity: 1; white-space: pre;" transform="translate(1186.8,0)">0.6</text></g><g class="xtick"><text text-anchor="middle" x="0" y="741" style="font-family: 'Open Sans', verdana, arial, sans-serif; font-size: 20px; fill: rgb(42, 63, 95); fill-opacity: 1; white-space: pre;" transform="translate(1370.1,0)">0.7</text></g><g class="xtick"><text text-anchor="middle" x="0" y="741" style="font-family: 'Open Sans', verdana, arial, sans-serif; font-size: 20px; fill: rgb(42, 63, 95); fill-opacity: 1; white-space: pre;" transform="translate(1553.4,0)">0.8</text></g><g class="xtick"><text text-anchor="middle" x="0" y="741" style="font-family: 'Open Sans', verdana, arial, sans-serif; font-size: 20px; fill: rgb(42, 63, 95); fill-opacity: 1; white-space: pre;" transform="translate(1736.7,0)">0.9</text></g><g class="xtick"><text text-anchor="middle" x="0" y="741" style="font-family: 'Open Sans', verdana, arial, sans-serif; font-size: 20px; fill: rgb(42, 63, 95); fill-opacity: 1; white-space: pre;" transform="translate(1920,0)">1</text></g></g><g class="yaxislayer-above"><g class="ytick"><text text-anchor="end" x="86" y="8.75" transform="translate(0,646.06)" style="font-family: 'Open Sans', verdana, arial, sans-serif; font-size: 25px; fill: rgb(42, 63, 95); fill-opacity: 1; white-space: pre;">240</text></g><g class="ytick"><text text-anchor="end" x="86" y="8.75" style="font-family: 'Open Sans', verdana, arial, sans-serif; font-size: 25px; fill: rgb(42, 63, 95); fill-opacity: 1; white-space: pre;" transform="translate(0,569.8)">260</text></g><g class="ytick"><text text-anchor="end" x="86" y="8.75" style="font-family: 'Open Sans', verdana, arial, sans-serif; font-size: 25px; fill: rgb(42, 63, 95); fill-opacity: 1; white-space: pre;" transform="translate(0,493.54)">280</text></g><g class="ytick"><text text-anchor="end" x="86" y="8.75" style="font-family: 'Open Sans', verdana, arial, sans-serif; font-size: 25px; fill: rgb(42, 63, 95); fill-opacity: 1; white-space: pre;" transform="translate(0,417.28)">300</text></g><g class="ytick"><text text-anchor="end" x="86" y="8.75" style="font-family: 'Open Sans', verdana, arial, sans-serif; font-size: 25px; fill: rgb(42, 63, 95); fill-opacity: 1; white-space: pre;" transform="translate(0,341.02)">320</text></g><g class="ytick"><text text-anchor="end" x="86" y="8.75" style="font-family: 'Open Sans', verdana, arial, sans-serif; font-size: 25px; fill: rgb(42, 63, 95); fill-opacity: 1; white-space: pre;" transform="translate(0,264.76)">340</text></g><g class="ytick"><text text-anchor="end" x="86" y="8.75" style="font-family: 'Open Sans', verdana, arial, sans-serif; font-size: 25px; fill: rgb(42, 63, 95); fill-opacity: 1; white-space: pre;" transform="translate(0,188.5)">360</text></g><g class="ytick"><text text-anchor="end" x="86" y="8.75" style="font-family: 'Open Sans', verdana, arial, sans-serif; font-size: 25px; fill: rgb(42, 63, 95); fill-opacity: 1; white-space: pre;" transform="translate(0,112.24000000000001)">380</text></g></g><g class="overaxes-above"/></g></g><g class="polarlayer"/><g class="smithlayer"/><g class="ternarylayer"/><g class="geolayer"/><g class="funnelarealayer"/><g class="pielayer"/><g class="iciclelayer"/><g class="treemaplayer"/><g class="sunburstlayer"/><g class="glimages"/><defs id="topdefs-c0c186"><g class="clips"/></defs><g class="layer-above"><g class="imagelayer"/><g class="shapelayer"/></g><g class="infolayer"><g class="g-gtitle"><text class="gtitle" x="100" y="30" text-anchor="start" dy="0em" style="opacity: 1; font-family: 'Open Sans', verdana, arial, sans-serif; font-size: 30px; fill: rgb(42, 63, 95); fill-opacity: 1; white-space: pre;">Area under the curve (AUC) in CartPole-v1 (Average ± CI 95%)</text></g><g class="g-xtitle"><text class="xtitle" x="1003.5" y="777" text-anchor="middle" style="opacity: 1; font-family: 'Open Sans', verdana, arial, sans-serif; font-size: 25px; fill: rgb(42, 63, 95); fill-opacity: 1; white-space: pre;">λ value</text></g><g class="g-ytitle" transform="translate(1.96875,0)"><text class="ytitle" transform="rotate(-90,21.03125,390)" x="21.03125" y="390" text-anchor="middle" style="opacity: 1; font-family: 'Open Sans', verdana, arial, sans-serif; font-size: 25px; fill: rgb(42, 63, 95); fill-opacity: 1; white-space: pre;">Area Under the Curve (AUC)</text></g></g></svg>