<svg class="main-svg" xmlns="http://www.w3.org/2000/svg" xmlns:xlink="http://www.w3.org/1999/xlink" width="2000" height="800" style="" viewBox="0 0 2000 800"><rect x="0" y="0" width="2000" height="800" style="fill: rgb(255, 255, 255); fill-opacity: 1;"/><defs id="defs-1e56d1"><g class="clips"><clipPath id="clip1e56d1xyplot" class="plotclip"><rect width="1840" height="660"/></clipPath><clipPath class="axesclip" id="clip1e56d1x"><rect x="80" y="0" width="1840" height="800"/></clipPath><clipPath class="axesclip" id="clip1e56d1y"><rect x="0" y="60" width="2000" height="660"/></clipPath><clipPath class="axesclip" id="clip1e56d1xy"><rect x="80" y="60" width="1840" height="660"/></clipPath></g><g class="gradients"/><g class="patterns"/></defs><g class="bglayer"><rect class="bg" x="80" y="60" width="1840" height="660" style="fill: rgb(229, 236, 246); fill-opacity: 1; stroke-width: 0;"/></g><g class="layer-below"><g class="imagelayer"/><g class="shapelayer"/></g><g class="cartesianlayer"><g class="subplot xy"><g class="layer-subplot"><g class="shapelayer"/><g class="imagelayer"/></g><g class="minor-gridlayer"><g class="x"/><g class="y"/></g><g class="gridlayer"><g class="x"><path class="xgrid crisp" transform="translate(264,0)" d="M0,60v660" style="stroke: rgb(255, 255, 255); stroke-opacity: 1; stroke-width: 1px;"/><path class="xgrid crisp" transform="translate(448,0)" d="M0,60v660" style="stroke: rgb(255, 255, 255); stroke-opacity: 1; stroke-width: 1px;"/><path class="xgrid crisp" transform="translate(632,0)" d="M0,60v660" style="stroke: rgb(255, 255, 255); stroke-opacity: 1; stroke-width: 1px;"/><path class="xgrid crisp" transform="translate(816,0)" d="M0,60v660" style="stroke: rgb(255, 255, 255); stroke-opacity: 1; stroke-width: 1px;"/><path class="xgrid crisp" transform="translate(1000,0)" d="M0,60v660" style="stroke: rgb(255, 255, 255); stroke-opacity: 1; stroke-width: 1px;"/><path class="xgrid crisp" transform="translate(1184,0)" d="M0,60v660" style="stroke: rgb(255, 255, 255); stroke-opacity: 1; stroke-width: 1px;"/><path class="xgrid crisp" transform="translate(1368,0)" d="M0,60v660" style="stroke: rgb(255, 255, 255); stroke-opacity: 1; stroke-width: 1px;"/><path class="xgrid crisp" transform="translate(1552,0)" d="M0,60v660" style="stroke: rgb(255, 255, 255); stroke-opacity: 1; stroke-width: 1px;"/><path class="xgrid crisp" transform="translate(1736,0)" d="M0,60v660" style="stroke: rgb(255, 255, 255); stroke-opacity: 1; stroke-width: 1px;"/></g><g class="y"><path class="ygrid crisp" transform="translate(0,646.06)" d="M80,0h1840" style="stroke: rgb(255, 255, 255); stroke-opacity: 1; stroke-width: 1px;"/><path class="ygrid crisp" transform="translate(0,569.8)" d="M80,0h1840" style="stroke: rgb(255, 255, 255); stroke-opacity: 1; stroke-width: 1px;"/><path class="ygrid crisp" transform="translate(0,493.54)" d="M80,0h1840" style="stroke: rgb(255, 255, 255); stroke-opacity: 1; stroke-width: 1px;"/><path class="ygrid crisp" transform="translate(0,417.28)" d="M80,0h1840" style="stroke: rgb(255, 255, 255); stroke-opacity: 1; stroke-width: 1px;"/><path class="ygrid crisp" transform="translate(0,341.02)" d="M80,0h1840" style="stroke: rgb(255, 255, 255); stroke-opacity: 1; stroke-width: 1px;"/><path class="ygrid crisp" transform="translate(0,264.76)" d="M80,0h1840" style="stroke: rgb(255, 255, 255); stroke-opacity: 1; stroke-width: 1px;"/><path class="ygrid crisp" transform="translate(0,188.5)" d="M80,0h1840" style="stroke: rgb(255, 255, 255); stroke-opacity: 1; stroke-width: 1px;"/><path class="ygrid crisp" transform="translate(0,112.24000000000001)" d="M80,0h1840" style="stroke: rgb(255, 255, 255); stroke-opacity: 1; stroke-width: 1px;"/></g></g><g class="zerolinelayer"><path class="xzl zl crisp" transform="translate(80,0)" d="M0,60v660" style="stroke: rgb(255, 255, 255); stroke-opacity: 1; stroke-width: 2px;"/></g><g class="layer-between"><g class="shapelayer"/><g class="imagelayer"/></g><path class="xlines-below"/><path class="ylines-below"/><g class="overlines-below"/><g class="xaxislayer-below"/><g class="yaxislayer-below"/><g class="overaxes-below"/><g class="overplot"><g class="xy" transform="translate(80,60)" clip-path="url(#clip1e56d1xyplot)"><g class="scatterlayer mlayer"><g class="trace scatter tracede9f3f" style="stroke-miterlimit: 2; opacity: 1;"><g class="fills"/><g class="errorbars"/><g class="lines"><path class="js-line" d="M0,434.79L18.4,531.85L36.8,508.89L55.2,474.16L73.6,470.67L92,473.98L110.4,496.65L128.8,520.64L147.2,480.63L165.6,479.63L184,431.02L202.4,437.66L220.8,416.58L239.2,476.62L257.6,464.52L276,432.94L294.4,399L312.8,387.6L331.2,352.04L349.6,337.61L368,369.99L386.4,391.87L404.8,397.11L423.2,392.31L441.6,409.79L460,377.11L478.4,366.86L496.8,345.24L515.2,306.98L533.6,323.29L552,374.73L570.4,350.45L588.8,398.9L607.2,347.69L625.6,359.48L644,339.8L662.4,370.97L680.8,385.6L699.2,409.52L717.6,385.05L736,342.17L754.4,391.24L772.8,349.2L791.2,377.21L809.6,373.81L828,375.5L846.4,370.25L864.8,386.52L883.2,386.92L901.6,364.52L920,378.58L938.4,336.94L956.8,370.23L975.2,377.3L993.6,307.33L1012,319.64L1030.4,312.85L1048.8,306.18L1067.2,280.99L1085.6,274.2L1104,284.71L1122.4,271.16L1140.8,263.01L1159.2,268.99L1177.6,233.16L1196,252.35L1214.4,220.78L1232.8,229.98L1251.2,211.85L1269.6,220.02L1288,201.56L1306.4,201.2L1324.8,189.71L1343.2,167.4L1361.6,167.43L1380,162.57L1398.4,148.91L1416.8,140.53L1435.2,135.43L1453.6,132.95L1472,113.64L1490.4,115.92L1508.8,106.22L1545.6,92.21L1564,84.15L1582.4,68.55L1600.8,69.7L1619.2,67.98L1637.6,63.78L1656,49.18L1665.2,61.77L1674.4,47.9L1683.6,54.57L1692.8,39.81L1702,36.85L1711.2,50L1720.4,38.89L1729.6,37.06L1738.8,43.47L1748,40.2L1757.2,48.3L1766.4,52.03L1775.6,59.86L1784.8,49.03L1794,65.55L1803.2,82.68L1812.4,85.14L1821.6,96.57L1830.8,124.18L1840,157.92" style="vector-effect: none; fill: none; stroke: rgb(0, 0, 255); stroke-opacity: 1; stroke-width: 2px; opacity: 1;"/></g><g class="points"/><g class="text"/></g><g class="trace scatter trace8552b1" style="stroke-miterlimit: 2;"><g class="fills"><g><path class="js-fill" d="M0,372.19L18.4,436.69L36.8,409.88L55.2,374.96L73.6,393.4L92,374.45L110.4,399.36L128.8,419.39L147.2,399.53L165.6,405.05L184,375.15L202.4,368.67L220.8,336.31L239.2,401.06L257.6,397.09L276,370.47L294.4,331.61L312.8,319.69L331.2,314.99L349.6,269.99L368,306.66L386.4,326.32L404.8,321.85L423.2,316.26L441.6,336.96L460,310.28L478.4,296.63L496.8,279.24L515.2,244.22L533.6,262.53L552,302.79L570.4,296.01L588.8,335.38L607.2,275.92L625.6,299.88L644,282.32L662.4,294.26L680.8,318.02L699.2,335.18L717.6,308.22L736,277.77L754.4,320.64L772.8,290.13L791.2,318.26L809.6,301.75L828,321.89L846.4,333.56L864.8,323.12L883.2,322.56L901.6,303.77L920,328.8L938.4,301.23L956.8,316.5L975.2,321.69L993.6,277.2L1012,296.47L1030.4,285.97L1048.8,282.19L1067.2,260.98L1085.6,247.76L1104,263.16L1122.4,255.39L1140.8,255.55L1159.2,252.64L1177.6,219.57L1196,231.94L1214.4,212.67L1232.8,219.91L1251.2,201.76L1269.6,210.6L1288,184.53L1306.4,189.78L1324.8,180.39L1343.2,157.35L1361.6,155.72L1380,148.69L1398.4,139.04L1416.8,133L1435.2,128.57L1453.6,125.8L1472,102.56L1490.4,105.09L1508.8,98.98L1527.2,89.89L1545.6,85.19L1564,76.1L1582.4,62.49L1600.8,60.98L1619.2,63.01L1637.6,59.39L1656,44.64L1665.2,56.48L1674.4,43.09L1683.6,49.64L1692.8,35.36L1702,33L1711.2,41.8L1720.4,35.25L1729.6,33.56L1738.8,38.74L1748,35.04L1757.2,44.13L1766.4,48.43L1775.6,55.33L1784.8,44.75L1803.2,77.74L1812.4,79.47L1821.6,90.9L1830.8,118.58L1840,152.62L1840,163.22L1830.8,129.77L1821.6,102.24L1812.4,90.82L1803.2,87.62L1784.8,53.3L1775.6,64.39L1766.4,55.62L1757.2,52.47L1748,45.36L1738.8,48.19L1729.6,40.55L1720.4,42.53L1711.2,58.21L1702,40.7L1692.8,44.26L1683.6,59.49L1674.4,52.7L1665.2,67.07L1656,53.71L1637.6,68.16L1619.2,72.96L1600.8,78.41L1582.4,74.6L1564,92.2L1545.6,99.22L1527.2,108.75L1508.8,113.46L1490.4,126.74L1472,124.72L1453.6,140.1L1435.2,142.3L1416.8,148.05L1398.4,158.78L1380,176.46L1361.6,179.14L1343.2,177.45L1324.8,199.04L1306.4,212.62L1288,218.58L1269.6,229.43L1251.2,221.94L1232.8,240.05L1214.4,228.88L1196,272.76L1177.6,246.75L1159.2,285.34L1140.8,270.47L1122.4,286.94L1104,306.27L1085.6,300.65L1067.2,301L1048.8,330.16L1030.4,339.72L1012,342.82L993.6,337.47L975.2,432.91L956.8,423.96L938.4,372.66L920,428.36L901.6,425.28L883.2,451.27L864.8,449.92L846.4,406.94L828,429.1L809.6,445.87L791.2,436.15L772.8,408.27L754.4,461.85L736,406.56L717.6,461.89L699.2,483.86L680.8,453.18L662.4,447.69L644,397.27L625.6,419.09L607.2,419.46L588.8,462.43L570.4,404.88L552,446.66L533.6,384.05L515.2,369.74L496.8,411.23L478.4,437.1L460,443.94L441.6,482.63L423.2,468.37L404.8,472.37L386.4,457.43L368,433.32L349.6,405.22L331.2,389.1L312.8,455.51L294.4,466.38L276,495.42L257.6,531.94L239.2,552.17L220.8,496.86L202.4,506.65L184,486.9L165.6,554.21L147.2,561.73L128.8,621.9L110.4,593.94L92,573.51L73.6,547.94L55.2,573.36L36.8,607.9L18.4,627L0,497.4Z" style="fill: rgb(211, 211, 211); fill-opacity: 0.5; stroke-width: 0;"/></g></g><g class="errorbars"/><g class="lines"><path class="js-line" d="M0,497.4L18.4,627L36.8,607.9L55.2,573.36L73.6,547.94L92,573.51L110.4,593.94L128.8,621.9L147.2,561.73L165.6,554.21L184,486.9L202.4,506.65L220.8,496.86L239.2,552.17L257.6,531.94L276,495.42L294.4,466.38L312.8,455.51L331.2,389.1L349.6,405.22L368,433.32L386.4,457.43L404.8,472.37L423.2,468.37L441.6,482.63L460,443.94L478.4,437.1L496.8,411.23L515.2,369.74L533.6,384.05L552,446.66L570.4,404.88L588.8,462.43L607.2,419.46L625.6,419.09L644,397.27L662.4,447.69L680.8,453.18L699.2,483.86L717.6,461.89L736,406.56L754.4,461.85L772.8,408.27L791.2,436.15L809.6,445.87L828,429.1L846.4,406.94L864.8,449.92L883.2,451.27L901.6,425.28L920,428.36L938.4,372.66L956.8,423.96L975.2,432.91L993.6,337.47L1012,342.82L1030.4,339.72L1048.8,330.16L1067.2,301L1085.6,300.65L1104,306.27L1122.4,286.94L1140.8,270.47L1159.2,285.34L1177.6,246.75L1196,272.76L1214.4,228.88L1232.8,240.05L1251.2,221.94L1269.6,229.43L1288,218.58L1306.4,212.62L1324.8,199.04L1343.2,177.45L1361.6,179.14L1380,176.46L1398.4,158.78L1416.8,148.05L1435.2,142.3L1453.6,140.1L1472,124.72L1490.4,126.74L1508.8,113.46L1527.2,108.75L1545.6,99.22L1564,92.2L1582.4,74.6L1600.8,78.41L1619.2,72.96L1637.6,68.16L1656,53.71L1665.2,67.07L1674.4,52.7L1683.6,59.49L1692.8,44.26L1702,40.7L1711.2,58.21L1720.4,42.53L1729.6,40.55L1738.8,48.19L1748,45.36L1757.2,52.47L1766.4,55.62L1775.6,64.39L1784.8,53.3L1803.2,87.62L1812.4,90.82L1821.6,102.24L1830.8,129.77L1840,163.22" style="vector-effect: none; fill: none; stroke: rgb(0, 0, 255); stroke-opacity: 1; stroke-width: 2px; opacity: 1;"/></g><g class="points"/><g class="text"/></g><g class="trace scatter tracea1e5a8" style="stroke-miterlimit: 2;"><g class="fills"/><g class="errorbars"/><g class="lines"><path class="js-line" d="M0,372.19L18.4,436.69L36.8,409.88L55.2,374.96L73.6,393.4L92,374.45L110.4,399.36L128.8,419.39L147.2,399.53L165.6,405.05L184,375.15L202.4,368.67L220.8,336.31L239.2,401.06L257.6,397.09L276,370.47L294.4,331.61L312.8,319.69L331.2,314.99L349.6,269.99L368,306.66L386.4,326.32L404.8,321.85L423.2,316.26L441.6,336.96L460,310.28L478.4,296.63L496.8,279.24L515.2,244.22L533.6,262.53L552,302.79L570.4,296.01L588.8,335.38L607.2,275.92L625.6,299.88L644,282.32L662.4,294.26L680.8,318.02L699.2,335.18L717.6,308.22L736,277.77L754.4,320.64L772.8,290.13L791.2,318.26L809.6,301.75L828,321.89L846.4,333.56L864.8,323.12L883.2,322.56L901.6,303.77L920,328.8L938.4,301.23L956.8,316.5L975.2,321.69L993.6,277.2L1012,296.47L1030.4,285.97L1048.8,282.19L1067.2,260.98L1085.6,247.76L1104,263.16L1122.4,255.39L1140.8,255.55L1159.2,252.64L1177.6,219.57L1196,231.94L1214.4,212.67L1232.8,219.91L1251.2,201.76L1269.6,210.6L1288,184.53L1306.4,189.78L1324.8,180.39L1343.2,157.35L1361.6,155.72L1380,148.69L1398.4,139.04L1416.8,133L1435.2,128.57L1453.6,125.8L1472,102.56L1490.4,105.09L1508.8,98.98L1527.2,89.89L1545.6,85.19L1564,76.1L1582.4,62.49L1600.8,60.98L1619.2,63.01L1637.6,59.39L1656,44.64L1665.2,56.48L1674.4,43.09L1683.6,49.64L1692.8,35.36L1702,33L1711.2,41.8L1720.4,35.25L1729.6,33.56L1738.8,38.74L1748,35.04L1757.2,44.13L1766.4,48.43L1775.6,55.33L1784.8,44.75L1803.2,77.74L1812.4,79.47L1821.6,90.9L1830.8,118.58L1840,152.62" style="vector-effect: none; fill: none; stroke: rgb(0, 0, 255); stroke-opacity: 1; stroke-width: 2px; opacity: 1;"/></g><g class="points"/><g class="text"/></g></g></g></g><g class="zerolinelayer-above"/><path class="xlines-above crisp" d="M0,0" style="fill: none;"/><path class="ylines-above crisp" d="M0,0" style="fill: none;"/><g class="overlines-above"/><g class="xaxislayer-above"><g class="xtick"><text text-anchor="middle" x="0" y="733" transform="translate(80,0)" style="font-family: 'Open Sans', verdana, arial, sans-serif; font-size: 12px; fill: rgb(42, 63, 95); fill-opacity: 1; white-space: pre;">0</text></g><g class="xtick"><text text-anchor="middle" x="0" y="733" style="font-family: 'Open Sans', verdana, arial, sans-serif; font-size: 12px; fill: rgb(42, 63, 95); fill-opacity: 1; white-space: pre;" transform="translate(264,0)">0.1</text></g><g class="xtick"><text text-anchor="middle" x="0" y="733" style="font-family: 'Open Sans', verdana, arial, sans-serif; font-size: 12px; fill: rgb(42, 63, 95); fill-opacity: 1; white-space: pre;" transform="translate(448,0)">0.2</text></g><g class="xtick"><text text-anchor="middle" x="0" y="733" style="font-family: 'Open Sans', verdana, arial, sans-serif; font-size: 12px; fill: rgb(42, 63, 95); fill-opacity: 1; white-space: pre;" transform="translate(632,0)">0.3</text></g><g class="xtick"><text text-anchor="middle" x="0" y="733" style="font-family: 'Open Sans', verdana, arial, sans-serif; font-size: 12px; fill: rgb(42, 63, 95); fill-opacity: 1; white-space: pre;" transform="translate(816,0)">0.4</text></g><g class="xtick"><text text-anchor="middle" x="0" y="733" style="font-family: 'Open Sans', verdana, arial, sans-serif; font-size: 12px; fill: rgb(42, 63, 95); fill-opacity: 1; white-space: pre;" transform="translate(1000,0)">0.5</text></g><g class="xtick"><text text-anchor="middle" x="0" y="733" style="font-family: 'Open Sans', verdana, arial, sans-serif; font-size: 12px; fill: rgb(42, 63, 95); fill-opacity: 1; white-space: pre;" transform="translate(1184,0)">0.6</text></g><g class="xtick"><text text-anchor="middle" x="0" y="733" style="font-family: 'Open Sans', verdana, arial, sans-serif; font-size: 12px; fill: rgb(42, 63, 95); fill-opacity: 1; white-space: pre;" transform="translate(1368,0)">0.7</text></g><g class="xtick"><text text-anchor="middle" x="0" y="733" style="font-family: 'Open Sans', verdana, arial, sans-serif; font-size: 12px; fill: rgb(42, 63, 95); fill-opacity: 1; white-space: pre;" transform="translate(1552,0)">0.8</text></g><g class="xtick"><text text-anchor="middle" x="0" y="733" style="font-family: 'Open Sans', verdana, arial, sans-serif; font-size: 12px; fill: rgb(42, 63, 95); fill-opacity: 1; white-space: pre;" transform="translate(1736,0)">0.9</text></g><g class="xtick"><text text-anchor="middle" x="0" y="733" style="font-family: 'Open Sans', verdana, arial, sans-serif; font-size: 12px; fill: rgb(42, 63, 95); fill-opacity: 1; white-space: pre;" transform="translate(1920,0)">1</text></g></g><g class="yaxislayer-above"><g class="ytick"><text text-anchor="end" x="79" y="4.199999999999999" transform="translate(0,646.06)" style="font-family: 'Open Sans', verdana, arial, sans-serif; font-size: 12px; fill: rgb(42, 63, 95); fill-opacity: 1; white-space: pre;">240</text></g><g class="ytick"><text text-anchor="end" x="79" y="4.199999999999999" style="font-family: 'Open Sans', verdana, arial, sans-serif; font-size: 12px; fill: rgb(42, 63, 95); fill-opacity: 1; white-space: pre;" transform="translate(0,569.8)">260</text></g><g class="ytick"><text text-anchor="end" x="79" y="4.199999999999999" style="font-family: 'Open Sans', verdana, arial, sans-serif; font-size: 12px; fill: rgb(42, 63, 95); fill-opacity: 1; white-space: pre;" transform="translate(0,493.54)">280</text></g><g class="ytick"><text text-anchor="end" x="79" y="4.199999999999999" style="font-family: 'Open Sans', verdana, arial, sans-serif; font-size: 12px; fill: rgb(42, 63, 95); fill-opacity: 1; white-space: pre;" transform="translate(0,417.28)">300</text></g><g class="ytick"><text text-anchor="end" x="79" y="4.199999999999999" style="font-family: 'Open Sans', verdana, arial, sans-serif; font-size: 12px; fill: rgb(42, 63, 95); fill-opacity: 1; white-space: pre;" transform="translate(0,341.02)">320</text></g><g class="ytick"><text text-anchor="end" x="79" y="4.199999999999999" style="font-family: 'Open Sans', verdana, arial, sans-serif; font-size: 12px; fill: rgb(42, 63, 95); fill-opacity: 1; white-space: pre;" transform="translate(0,264.76)">340</text></g><g class="ytick"><text text-anchor="end" x="79" y="4.199999999999999" style="font-family: 'Open Sans', verdana, arial, sans-serif; font-size: 12px; fill: rgb(42, 63, 95); fill-opacity: 1; white-space: pre;" transform="translate(0,188.5)">360</text></g><g class="ytick"><text text-anchor="end" x="79" y="4.199999999999999" style="font-family: 'Open Sans', verdana, arial, sans-serif; font-size: 12px; fill: rgb(42, 63, 95); fill-opacity: 1; white-space: pre;" transform="translate(0,112.24000000000001)">380</text></g></g><g class="overaxes-above"/></g></g><g class="polarlayer"/><g class="smithlayer"/><g class="ternarylayer"/><g class="geolayer"/><g class="funnelarealayer"/><g class="pielayer"/><g class="iciclelayer"/><g class="treemaplayer"/><g class="sunburstlayer"/><g class="glimages"/><defs id="topdefs-1e56d1"><g class="clips"/></defs><g class="layer-above"><g class="imagelayer"/><g class="shapelayer"/></g><g class="infolayer"><g class="g-gtitle"><text class="gtitle" x="100" y="30" text-anchor="start" dy="0em" style="opacity: 1; font-family: 'Open Sans', verdana, arial, sans-serif; font-size: 17px; fill: rgb(42, 63, 95); fill-opacity: 1; white-space: pre;">Area under the curve (AUC) in CartPole-v1 (Average ± CI 95%)</text></g><g class="g-xtitle"><text class="xtitle" x="1000" y="760.3" text-anchor="middle" style="opacity: 1; font-family: 'Open Sans', verdana, arial, sans-serif; font-size: 14px; fill: rgb(42, 63, 95); fill-opacity: 1; white-space: pre;">λ value</text></g><g class="g-ytitle"><text class="ytitle" transform="rotate(-90,39.56875,390)" x="39.56875" y="390" text-anchor="middle" style="opacity: 1; font-family: 'Open Sans', verdana, arial, sans-serif; font-size: 14px; fill: rgb(42, 63, 95); fill-opacity: 1; white-space: pre;">Area Under the Curve (AUC)</text></g></g></svg>