<svg class="main-svg" xmlns="http://www.w3.org/2000/svg" xmlns:xlink="http://www.w3.org/1999/xlink" width="2000" height="800" style="" viewBox="0 0 2000 800"><rect x="0" y="0" width="2000" height="800" style="fill: rgb(255, 255, 255); fill-opacity: 1;"/><defs id="defs-cd8261"><g class="clips"><clipPath id="clipcd8261xyplot" class="plotclip"><rect width="1826" height="660"/></clipPath><clipPath class="axesclip" id="clipcd8261x"><rect x="94" y="0" width="1826" height="800"/></clipPath><clipPath class="axesclip" id="clipcd8261y"><rect x="0" y="60" width="2000" height="660"/></clipPath><clipPath class="axesclip" id="clipcd8261xy"><rect x="94" y="60" width="1826" height="660"/></clipPath></g><g class="gradients"/><g class="patterns"/></defs><g class="bglayer"><rect class="bg" x="94" y="60" width="1826" height="660" style="fill: rgb(229, 236, 246); fill-opacity: 1; stroke-width: 0;"/></g><g class="layer-below"><g class="imagelayer"/><g class="shapelayer"/></g><g class="cartesianlayer"><g class="subplot xy"><g class="layer-subplot"><g class="shapelayer"/><g class="imagelayer"/></g><g class="minor-gridlayer"><g class="x"/><g class="y"/></g><g class="gridlayer"><g class="x"><path class="xgrid crisp" transform="translate(276.6,0)" d="M0,60v660" style="stroke: rgb(255, 255, 255); stroke-opacity: 1; stroke-width: 1px;"/><path class="xgrid crisp" transform="translate(459.2,0)" d="M0,60v660" style="stroke: rgb(255, 255, 255); stroke-opacity: 1; stroke-width: 1px;"/><path class="xgrid crisp" transform="translate(641.8,0)" d="M0,60v660" style="stroke: rgb(255, 255, 255); stroke-opacity: 1; stroke-width: 1px;"/><path class="xgrid crisp" transform="translate(824.4,0)" d="M0,60v660" style="stroke: rgb(255, 255, 255); stroke-opacity: 1; stroke-width: 1px;"/><path class="xgrid crisp" transform="translate(1007,0)" d="M0,60v660" style="stroke: rgb(255, 255, 255); stroke-opacity: 1; stroke-width: 1px;"/><path class="xgrid crisp" transform="translate(1189.6,0)" d="M0,60v660" style="stroke: rgb(255, 255, 255); stroke-opacity: 1; stroke-width: 1px;"/><path class="xgrid crisp" transform="translate(1372.2,0)" d="M0,60v660" style="stroke: rgb(255, 255, 255); stroke-opacity: 1; stroke-width: 1px;"/><path class="xgrid crisp" transform="translate(1554.8,0)" d="M0,60v660" style="stroke: rgb(255, 255, 255); stroke-opacity: 1; stroke-width: 1px;"/><path class="xgrid crisp" transform="translate(1737.4,0)" d="M0,60v660" style="stroke: rgb(255, 255, 255); stroke-opacity: 1; stroke-width: 1px;"/></g><g class="y"><path class="ygrid crisp" transform="translate(0,678.84)" d="M94,0h1826" style="stroke: rgb(255, 255, 255); stroke-opacity: 1; stroke-width: 1px;"/><path class="ygrid crisp" transform="translate(0,605.63)" d="M94,0h1826" style="stroke: rgb(255, 255, 255); stroke-opacity: 1; stroke-width: 1px;"/><path class="ygrid crisp" transform="translate(0,532.4300000000001)" d="M94,0h1826" style="stroke: rgb(255, 255, 255); stroke-opacity: 1; stroke-width: 1px;"/><path class="ygrid crisp" transform="translate(0,459.22)" d="M94,0h1826" style="stroke: rgb(255, 255, 255); stroke-opacity: 1; stroke-width: 1px;"/><path class="ygrid crisp" transform="translate(0,386.01)" d="M94,0h1826" style="stroke: rgb(255, 255, 255); stroke-opacity: 1; stroke-width: 1px;"/><path class="ygrid crisp" transform="translate(0,312.8)" d="M94,0h1826" style="stroke: rgb(255, 255, 255); stroke-opacity: 1; stroke-width: 1px;"/><path class="ygrid crisp" transform="translate(0,239.59)" d="M94,0h1826" style="stroke: rgb(255, 255, 255); stroke-opacity: 1; stroke-width: 1px;"/><path class="ygrid crisp" transform="translate(0,166.38)" d="M94,0h1826" style="stroke: rgb(255, 255, 255); stroke-opacity: 1; stroke-width: 1px;"/><path class="ygrid crisp" transform="translate(0,93.17)" d="M94,0h1826" style="stroke: rgb(255, 255, 255); stroke-opacity: 1; stroke-width: 1px;"/></g></g><g class="zerolinelayer"><path class="xzl zl crisp" transform="translate(94,0)" d="M0,60v660" style="stroke: rgb(255, 255, 255); stroke-opacity: 1; stroke-width: 2px;"/></g><g class="layer-between"><g class="shapelayer"/><g class="imagelayer"/></g><path class="xlines-below"/><path class="ylines-below"/><g class="overlines-below"/><g class="xaxislayer-below"/><g class="yaxislayer-below"/><g class="overaxes-below"/><g class="overplot"><g class="xy" transform="translate(94,60)" clip-path="url(#clipcd8261xyplot)"><g class="scatterlayer mlayer"><g class="trace scatter trace68affe" style="stroke-miterlimit: 2; opacity: 1;"><g class="fills"/><g class="errorbars"/><g class="lines"><path class="js-line" d="M0,510.53L18.26,627L36.52,599.45L54.78,557.78L73.04,553.58L91.3,557.56L109.56,584.77L127.82,613.55L146.08,565.54L164.34,564.34L182.6,506.01L200.86,513.98L219.12,488.68L237.38,560.72L255.64,546.2L273.9,508.31L292.16,467.58L310.42,453.9L328.68,411.23L346.94,393.91L365.2,432.77L383.46,459.03L401.72,465.32L419.98,459.56L438.24,480.54L456.5,441.32L474.76,429.02L493.02,403.06L511.28,357.16L529.54,376.73L547.8,438.45L566.06,409.32L584.32,467.47L602.58,406.01L620.84,420.16L639.1,396.54L657.36,433.95L675.62,451.5L693.88,480.2L712.14,450.85L730.4,399.38L748.66,458.27L766.92,407.82L785.18,441.43L803.44,437.35L821.7,439.38L839.96,433.08L858.22,452.6L876.48,453.08L894.74,426.21L913,443.08L931.26,393.11L949.52,433.06L967.78,441.54L986.04,357.58L1004.3,372.35L1022.56,364.19L1040.82,356.2L1059.08,325.97L1077.34,317.82L1095.6,330.44L1113.86,314.18L1132.12,304.39L1150.38,311.57L1168.64,268.57L1186.9,291.6L1205.16,253.71L1223.42,264.75L1241.68,243L1259.94,252.8L1278.2,230.65L1296.46,230.22L1314.72,216.43L1332.98,189.66L1351.24,189.69L1369.5,183.86L1387.76,167.47L1406.02,157.41L1424.28,151.3L1442.54,148.32L1460.8,125.15L1479.06,127.88L1497.32,116.24L1533.84,99.42L1552.1,89.76L1570.36,71.03L1588.62,72.41L1606.88,70.36L1625.14,65.31L1643.4,47.79L1652.53,62.91L1661.66,46.25L1670.79,54.26L1679.92,36.55L1689.05,33L1698.18,48.78L1707.31,35.44L1716.44,33.25L1725.57,40.94L1734.7,37.02L1743.83,46.73L1752.96,51.21L1762.09,60.61L1771.22,47.61L1780.35,67.44L1789.48,88L1798.61,90.95L1807.74,104.66L1816.87,137.79L1826,178.28" style="vector-effect: none; fill: none; stroke: rgb(0, 0, 255); stroke-opacity: 1; stroke-width: 2px; opacity: 1;"/></g><g class="points"/><g class="text"/></g><g class="trace scatter trace277034" style="stroke-miterlimit: 2;"><g class="fills"><g><path class="js-fill" d="M0,510.53L18.26,627L36.52,599.45L54.78,557.77L73.04,553.58L91.3,557.56L109.56,584.76L127.82,613.55L146.08,565.54L164.34,564.34L182.6,506.01L200.86,513.98L219.12,488.68L237.38,560.72L255.64,546.2L273.9,508.31L292.16,467.58L310.42,453.9L328.68,411.23L346.94,393.91L365.2,432.77L383.46,459.03L401.72,465.31L419.98,459.56L438.24,480.53L456.5,441.31L474.76,429.02L493.02,403.06L511.28,357.16L529.54,376.73L547.8,438.45L566.06,409.32L584.32,467.47L602.58,406.01L620.84,420.16L639.1,396.54L657.36,433.95L675.62,451.5L693.88,480.2L712.14,450.85L730.4,399.38L748.66,458.27L766.92,407.82L785.18,441.43L803.44,437.35L821.7,439.38L839.96,433.08L858.22,452.6L876.48,453.08L894.74,426.21L913,443.08L931.26,393.11L949.52,433.06L967.78,441.54L986.04,357.58L1004.3,372.35L1022.56,364.19L1040.82,356.2L1059.08,325.97L1077.34,317.82L1095.6,330.44L1113.86,314.18L1132.12,304.39L1150.38,311.57L1168.64,268.57L1186.9,291.6L1205.16,253.71L1223.42,264.75L1241.68,243L1259.94,252.8L1278.2,230.65L1296.46,230.22L1314.72,216.43L1332.98,189.66L1351.24,189.69L1369.5,183.86L1387.76,167.47L1406.02,157.41L1424.28,151.3L1442.54,148.32L1460.8,125.15L1479.06,127.88L1497.32,116.24L1533.84,99.42L1552.1,89.76L1570.36,71.03L1588.62,72.41L1606.88,70.36L1625.14,65.31L1643.4,47.79L1652.53,62.91L1661.66,46.25L1670.79,54.26L1679.92,36.55L1689.05,33L1698.18,48.78L1707.31,35.44L1716.44,33.25L1725.57,40.94L1734.7,37.02L1743.83,46.73L1752.96,51.21L1762.09,60.61L1771.22,47.61L1780.35,67.44L1789.48,88L1798.61,90.95L1807.74,104.66L1816.87,137.79L1826,178.28L1826,178.28L1816.87,137.79L1807.74,104.66L1798.61,90.95L1789.48,88L1780.35,67.44L1771.22,47.61L1762.09,60.61L1752.96,51.21L1743.83,46.74L1734.7,37.02L1725.57,40.94L1716.44,33.25L1707.31,35.44L1698.18,48.78L1689.05,33L1679.92,36.55L1670.79,54.26L1661.66,46.25L1652.53,62.91L1643.4,47.79L1625.14,65.31L1606.88,70.36L1588.62,72.41L1570.36,71.03L1552.1,89.76L1533.84,99.42L1497.32,116.24L1479.06,127.88L1460.8,125.15L1442.54,148.32L1424.28,151.3L1406.02,157.41L1387.76,167.47L1369.5,183.86L1351.24,189.69L1332.98,189.66L1314.72,216.43L1296.46,230.22L1278.2,230.65L1259.94,252.8L1241.68,243L1223.42,264.75L1205.16,253.71L1186.9,291.6L1168.64,268.57L1150.38,311.57L1132.12,304.39L1113.86,314.18L1095.6,330.44L1077.34,317.82L1059.08,325.97L1040.82,356.2L1022.56,364.2L1004.3,372.35L986.04,357.58L967.78,441.54L949.52,433.06L931.26,393.11L913,443.08L894.74,426.21L876.48,453.08L858.22,452.6L839.96,433.08L821.7,439.38L803.44,437.35L785.18,441.43L766.92,407.82L748.66,458.27L730.4,399.38L712.14,450.85L693.88,480.2L675.62,451.5L657.36,433.95L639.1,396.54L620.84,420.16L602.58,406.01L584.32,467.47L566.06,409.32L547.8,438.45L529.54,376.73L511.28,357.16L493.02,403.06L474.76,429.02L456.5,441.32L438.24,480.54L419.98,459.56L401.72,465.32L383.46,459.03L365.2,432.77L346.94,393.91L328.68,411.23L310.42,453.9L292.16,467.58L273.9,508.31L255.64,546.2L237.38,560.72L219.12,488.68L200.86,513.98L182.6,506.01L164.34,564.34L146.08,565.54L127.82,613.55L109.56,584.77L91.3,557.56L73.04,553.59L54.78,557.78L36.52,599.45L18.26,627L0,510.54Z" style="fill: rgb(211, 211, 211); fill-opacity: 0.5; stroke-width: 0;"/></g></g><g class="errorbars"/><g class="lines"><path class="js-line" d="M0,510.54L18.26,627L36.52,599.45L54.78,557.78L73.04,553.59L91.3,557.56L109.56,584.77L127.82,613.55L146.08,565.54L164.34,564.34L182.6,506.01L200.86,513.98L219.12,488.68L237.38,560.72L255.64,546.2L273.9,508.31L292.16,467.58L310.42,453.9L328.68,411.23L346.94,393.91L365.2,432.77L383.46,459.03L401.72,465.32L419.98,459.56L438.24,480.54L456.5,441.32L474.76,429.02L493.02,403.06L511.28,357.16L529.54,376.73L547.8,438.45L566.06,409.32L584.32,467.47L602.58,406.01L620.84,420.16L639.1,396.54L657.36,433.95L675.62,451.5L693.88,480.2L712.14,450.85L730.4,399.38L748.66,458.27L766.92,407.82L785.18,441.43L803.44,437.35L821.7,439.38L839.96,433.08L858.22,452.6L876.48,453.08L894.74,426.21L913,443.08L931.26,393.11L949.52,433.06L967.78,441.54L986.04,357.58L1004.3,372.35L1022.56,364.2L1040.82,356.2L1059.08,325.97L1077.34,317.82L1095.6,330.44L1113.86,314.18L1132.12,304.39L1150.38,311.57L1168.64,268.57L1186.9,291.6L1205.16,253.71L1223.42,264.75L1241.68,243L1259.94,252.8L1278.2,230.65L1296.46,230.22L1314.72,216.43L1332.98,189.66L1351.24,189.69L1369.5,183.86L1387.76,167.47L1406.02,157.41L1424.28,151.3L1442.54,148.32L1460.8,125.15L1479.06,127.88L1497.32,116.24L1533.84,99.42L1552.1,89.76L1570.36,71.03L1588.62,72.41L1606.88,70.36L1625.14,65.31L1643.4,47.79L1652.53,62.91L1661.66,46.25L1670.79,54.26L1679.92,36.55L1689.05,33L1698.18,48.78L1707.31,35.44L1716.44,33.25L1725.57,40.94L1734.7,37.02L1743.83,46.74L1752.96,51.21L1762.09,60.61L1771.22,47.61L1780.35,67.44L1789.48,88L1798.61,90.95L1807.74,104.66L1816.87,137.79L1826,178.28" style="vector-effect: none; fill: none; stroke: rgb(0, 0, 255); stroke-opacity: 1; stroke-width: 2px; opacity: 1;"/></g><g class="points"/><g class="text"/></g><g class="trace scatter trace109d81" style="stroke-miterlimit: 2;"><g class="fills"/><g class="errorbars"/><g class="lines"><path class="js-line" d="M0,510.53L18.26,627L36.52,599.45L54.78,557.77L73.04,553.58L91.3,557.56L109.56,584.76L127.82,613.55L146.08,565.54L164.34,564.34L182.6,506.01L200.86,513.98L219.12,488.68L237.38,560.72L255.64,546.2L273.9,508.31L292.16,467.58L310.42,453.9L328.68,411.23L346.94,393.91L365.2,432.77L383.46,459.03L401.72,465.31L419.98,459.56L438.24,480.53L456.5,441.31L474.76,429.02L493.02,403.06L511.28,357.16L529.54,376.73L547.8,438.45L566.06,409.32L584.32,467.47L602.58,406.01L620.84,420.16L639.1,396.54L657.36,433.95L675.62,451.5L693.88,480.2L712.14,450.85L730.4,399.38L748.66,458.27L766.92,407.82L785.18,441.43L803.44,437.35L821.7,439.38L839.96,433.08L858.22,452.6L876.48,453.08L894.74,426.21L913,443.08L931.26,393.11L949.52,433.06L967.78,441.54L986.04,357.58L1004.3,372.35L1022.56,364.19L1040.82,356.2L1059.08,325.97L1077.34,317.82L1095.6,330.44L1113.86,314.18L1132.12,304.39L1150.38,311.57L1168.64,268.57L1186.9,291.6L1205.16,253.71L1223.42,264.75L1241.68,243L1259.94,252.8L1278.2,230.65L1296.46,230.22L1314.72,216.43L1332.98,189.66L1351.24,189.69L1369.5,183.86L1387.76,167.47L1406.02,157.41L1424.28,151.3L1442.54,148.32L1460.8,125.15L1479.06,127.88L1497.32,116.24L1533.84,99.42L1552.1,89.76L1570.36,71.03L1588.62,72.41L1606.88,70.36L1625.14,65.31L1643.4,47.79L1652.53,62.91L1661.66,46.25L1670.79,54.26L1679.92,36.55L1689.05,33L1698.18,48.78L1707.31,35.44L1716.44,33.25L1725.57,40.94L1734.7,37.02L1743.83,46.73L1752.96,51.21L1762.09,60.61L1771.22,47.61L1780.35,67.44L1789.48,88L1798.61,90.95L1807.74,104.66L1816.87,137.79L1826,178.28" style="vector-effect: none; fill: none; stroke: rgb(0, 0, 255); stroke-opacity: 1; stroke-width: 2px; opacity: 1;"/></g><g class="points"/><g class="text"/></g></g></g></g><g class="zerolinelayer-above"/><path class="xlines-above crisp" d="M0,0" style="fill: none;"/><path class="ylines-above crisp" d="M0,0" style="fill: none;"/><g class="overlines-above"/><g class="xaxislayer-above"><g class="xtick"><text text-anchor="middle" x="0" y="741" transform="translate(94,0)" style="font-family: 'Open Sans', verdana, arial, sans-serif; font-size: 20px; fill: rgb(42, 63, 95); fill-opacity: 1; white-space: pre;">0</text></g><g class="xtick"><text text-anchor="middle" x="0" y="741" style="font-family: 'Open Sans', verdana, arial, sans-serif; font-size: 20px; fill: rgb(42, 63, 95); fill-opacity: 1; white-space: pre;" transform="translate(276.6,0)">0.1</text></g><g class="xtick"><text text-anchor="middle" x="0" y="741" style="font-family: 'Open Sans', verdana, arial, sans-serif; font-size: 20px; fill: rgb(42, 63, 95); fill-opacity: 1; white-space: pre;" transform="translate(459.2,0)">0.2</text></g><g class="xtick"><text text-anchor="middle" x="0" y="741" style="font-family: 'Open Sans', verdana, arial, sans-serif; font-size: 20px; fill: rgb(42, 63, 95); fill-opacity: 1; white-space: pre;" transform="translate(641.8,0)">0.3</text></g><g class="xtick"><text text-anchor="middle" x="0" y="741" style="font-family: 'Open Sans', verdana, arial, sans-serif; font-size: 20px; fill: rgb(42, 63, 95); fill-opacity: 1; white-space: pre;" transform="translate(824.4,0)">0.4</text></g><g class="xtick"><text text-anchor="middle" x="0" y="741" style="font-family: 'Open Sans', verdana, arial, sans-serif; font-size: 20px; fill: rgb(42, 63, 95); fill-opacity: 1; white-space: pre;" transform="translate(1007,0)">0.5</text></g><g class="xtick"><text text-anchor="middle" x="0" y="741" style="font-family: 'Open Sans', verdana, arial, sans-serif; font-size: 20px; fill: rgb(42, 63, 95); fill-opacity: 1; white-space: pre;" transform="translate(1189.6,0)">0.6</text></g><g class="xtick"><text text-anchor="middle" x="0" y="741" style="font-family: 'Open Sans', verdana, arial, sans-serif; font-size: 20px; fill: rgb(42, 63, 95); fill-opacity: 1; white-space: pre;" transform="translate(1372.2,0)">0.7</text></g><g class="xtick"><text text-anchor="middle" x="0" y="741" style="font-family: 'Open Sans', verdana, arial, sans-serif; font-size: 20px; fill: rgb(42, 63, 95); fill-opacity: 1; white-space: pre;" transform="translate(1554.8,0)">0.8</text></g><g class="xtick"><text text-anchor="middle" x="0" y="741" style="font-family: 'Open Sans', verdana, arial, sans-serif; font-size: 20px; fill: rgb(42, 63, 95); fill-opacity: 1; white-space: pre;" transform="translate(1737.4,0)">0.9</text></g><g class="xtick"><text text-anchor="middle" x="0" y="741" style="font-family: 'Open Sans', verdana, arial, sans-serif; font-size: 20px; fill: rgb(42, 63, 95); fill-opacity: 1; white-space: pre;" transform="translate(1920,0)">1</text></g></g><g class="yaxislayer-above"><g class="ytick"><text text-anchor="end" x="93" y="8.75" transform="translate(0,678.84)" style="font-family: 'Open Sans', verdana, arial, sans-serif; font-size: 25px; fill: rgb(42, 63, 95); fill-opacity: 1; white-space: pre;">32M</text></g><g class="ytick"><text text-anchor="end" x="93" y="8.75" style="font-family: 'Open Sans', verdana, arial, sans-serif; font-size: 25px; fill: rgb(42, 63, 95); fill-opacity: 1; white-space: pre;" transform="translate(0,605.63)">34M</text></g><g class="ytick"><text text-anchor="end" x="93" y="8.75" style="font-family: 'Open Sans', verdana, arial, sans-serif; font-size: 25px; fill: rgb(42, 63, 95); fill-opacity: 1; white-space: pre;" transform="translate(0,532.4300000000001)">36M</text></g><g class="ytick"><text text-anchor="end" x="93" y="8.75" style="font-family: 'Open Sans', verdana, arial, sans-serif; font-size: 25px; fill: rgb(42, 63, 95); fill-opacity: 1; white-space: pre;" transform="translate(0,459.22)">38M</text></g><g class="ytick"><text text-anchor="end" x="93" y="8.75" style="font-family: 'Open Sans', verdana, arial, sans-serif; font-size: 25px; fill: rgb(42, 63, 95); fill-opacity: 1; white-space: pre;" transform="translate(0,386.01)">40M</text></g><g class="ytick"><text text-anchor="end" x="93" y="8.75" style="font-family: 'Open Sans', verdana, arial, sans-serif; font-size: 25px; fill: rgb(42, 63, 95); fill-opacity: 1; white-space: pre;" transform="translate(0,312.8)">42M</text></g><g class="ytick"><text text-anchor="end" x="93" y="8.75" style="font-family: 'Open Sans', verdana, arial, sans-serif; font-size: 25px; fill: rgb(42, 63, 95); fill-opacity: 1; white-space: pre;" transform="translate(0,239.59)">44M</text></g><g class="ytick"><text text-anchor="end" x="93" y="8.75" style="font-family: 'Open Sans', verdana, arial, sans-serif; font-size: 25px; fill: rgb(42, 63, 95); fill-opacity: 1; white-space: pre;" transform="translate(0,166.38)">46M</text></g><g class="ytick"><text text-anchor="end" x="93" y="8.75" style="font-family: 'Open Sans', verdana, arial, sans-serif; font-size: 25px; fill: rgb(42, 63, 95); fill-opacity: 1; white-space: pre;" transform="translate(0,93.17)">48M</text></g></g><g class="overaxes-above"/></g></g><g class="polarlayer"/><g class="smithlayer"/><g class="ternarylayer"/><g class="geolayer"/><g class="funnelarealayer"/><g class="pielayer"/><g class="iciclelayer"/><g class="treemaplayer"/><g class="sunburstlayer"/><g class="glimages"/><defs id="topdefs-cd8261"><g class="clips"/></defs><g class="layer-above"><g class="imagelayer"/><g class="shapelayer"/></g><g class="infolayer"><g class="g-gtitle"><text class="gtitle" x="100" y="30" text-anchor="start" dy="0em" style="opacity: 1; font-family: 'Open Sans', verdana, arial, sans-serif; font-size: 30px; fill: rgb(42, 63, 95); fill-opacity: 1; white-space: pre;">Area under the curve (AUC) in CartPole-v1 (Average +- CI 95%)</text></g><g class="g-xtitle"><text class="xtitle" x="1007" y="777" text-anchor="middle" style="opacity: 1; font-family: 'Open Sans', verdana, arial, sans-serif; font-size: 25px; fill: rgb(42, 63, 95); fill-opacity: 1; white-space: pre;">λ value</text></g><g class="g-ytitle" transform="translate(1.890625,0)"><text class="ytitle" transform="rotate(-90,21.109375,390)" x="21.109375" y="390" text-anchor="middle" style="opacity: 1; font-family: 'Open Sans', verdana, arial, sans-serif; font-size: 25px; fill: rgb(42, 63, 95); fill-opacity: 1; white-space: pre;">Area Under the Curve (AUC)</text></g></g></svg>