<svg class="main-svg" xmlns="http://www.w3.org/2000/svg" xmlns:xlink="http://www.w3.org/1999/xlink" width="2000" height="800" style="" viewBox="0 0 2000 800"><rect x="0" y="0" width="2000" height="800" style="fill: rgb(255, 255, 255); fill-opacity: 1;"/><defs id="defs-f1c9d8"><g class="clips"><clipPath id="clipf1c9d8xyplot" class="plotclip"><rect width="1833" height="620"/></clipPath><clipPath class="axesclip" id="clipf1c9d8x"><rect x="87" y="0" width="1833" height="800"/></clipPath><clipPath class="axesclip" id="clipf1c9d8y"><rect x="0" y="100" width="2000" height="620"/></clipPath><clipPath class="axesclip" id="clipf1c9d8xy"><rect x="87" y="100" width="1833" height="620"/></clipPath></g><g class="gradients"/><g class="patterns"/></defs><g class="bglayer"><rect class="bg" x="87" y="100" width="1833" height="620" style="fill: rgb(229, 236, 246); fill-opacity: 1; stroke-width: 0;"/></g><g class="layer-below"><g class="imagelayer"/><g class="shapelayer"/></g><g class="cartesianlayer"><g class="subplot xy"><g class="layer-subplot"><g class="shapelayer"/><g class="imagelayer"/></g><g class="minor-gridlayer"><g class="x"/><g class="y"/></g><g class="gridlayer"><g class="x"><path class="xgrid crisp" transform="translate(270.3,0)" d="M0,100v620" style="stroke: rgb(255, 255, 255); stroke-opacity: 1; stroke-width: 1px;"/><path class="xgrid crisp" transform="translate(453.6,0)" d="M0,100v620" style="stroke: rgb(255, 255, 255); stroke-opacity: 1; stroke-width: 1px;"/><path class="xgrid crisp" transform="translate(636.9,0)" d="M0,100v620" style="stroke: rgb(255, 255, 255); stroke-opacity: 1; stroke-width: 1px;"/><path class="xgrid crisp" transform="translate(820.2,0)" d="M0,100v620" style="stroke: rgb(255, 255, 255); stroke-opacity: 1; stroke-width: 1px;"/><path class="xgrid crisp" transform="translate(1003.5,0)" d="M0,100v620" style="stroke: rgb(255, 255, 255); stroke-opacity: 1; stroke-width: 1px;"/><path class="xgrid crisp" transform="translate(1186.8,0)" d="M0,100v620" style="stroke: rgb(255, 255, 255); stroke-opacity: 1; stroke-width: 1px;"/><path class="xgrid crisp" transform="translate(1370.1,0)" d="M0,100v620" style="stroke: rgb(255, 255, 255); stroke-opacity: 1; stroke-width: 1px;"/><path class="xgrid crisp" transform="translate(1553.4,0)" d="M0,100v620" style="stroke: rgb(255, 255, 255); stroke-opacity: 1; stroke-width: 1px;"/><path class="xgrid crisp" transform="translate(1736.7,0)" d="M0,100v620" style="stroke: rgb(255, 255, 255); stroke-opacity: 1; stroke-width: 1px;"/></g><g class="y"><path class="ygrid crisp" transform="translate(0,638.82)" d="M87,0h1833" style="stroke: rgb(255, 255, 255); stroke-opacity: 1; stroke-width: 1px;"/><path class="ygrid crisp" transform="translate(0,556.51)" d="M87,0h1833" style="stroke: rgb(255, 255, 255); stroke-opacity: 1; stroke-width: 1px;"/><path class="ygrid crisp" transform="translate(0,474.2)" d="M87,0h1833" style="stroke: rgb(255, 255, 255); stroke-opacity: 1; stroke-width: 1px;"/><path class="ygrid crisp" transform="translate(0,391.88)" d="M87,0h1833" style="stroke: rgb(255, 255, 255); stroke-opacity: 1; stroke-width: 1px;"/><path class="ygrid crisp" transform="translate(0,309.57)" d="M87,0h1833" style="stroke: rgb(255, 255, 255); stroke-opacity: 1; stroke-width: 1px;"/><path class="ygrid crisp" transform="translate(0,227.26)" d="M87,0h1833" style="stroke: rgb(255, 255, 255); stroke-opacity: 1; stroke-width: 1px;"/><path class="ygrid crisp" transform="translate(0,144.94)" d="M87,0h1833" style="stroke: rgb(255, 255, 255); stroke-opacity: 1; stroke-width: 1px;"/></g></g><g class="zerolinelayer"><path class="xzl zl crisp" transform="translate(87,0)" d="M0,100v620" style="stroke: rgb(255, 255, 255); stroke-opacity: 1; stroke-width: 2px;"/></g><g class="layer-between"><g class="shapelayer"/><g class="imagelayer"/></g><path class="xlines-below"/><path class="ylines-below"/><g class="overlines-below"/><g class="xaxislayer-below"/><g class="yaxislayer-below"/><g class="overaxes-below"/><g class="overplot"><g class="xy" transform="translate(87,100)" clip-path="url(#clipf1c9d8xyplot)"><g class="scatterlayer mlayer"><g class="trace scatter trace35cd96" style="stroke-miterlimit: 2; opacity: 1;"><g class="fills"/><g class="errorbars"/><g class="lines"><path class="js-line" d="M0,225.89L18.33,409.53L36.66,455.85L54.99,444.82L73.32,347.5L91.65,418.28L109.98,394.87L128.31,414.37L146.64,261.92L164.97,286.63L183.3,217.46L201.63,240.67L219.96,314.53L256.62,195.01L274.95,256.85L293.28,249.74L311.61,211.06L329.94,154.82L348.27,258.09L366.6,238.25L384.93,245.58L403.26,235.34L421.59,271.8L439.92,266.3L458.25,239.01L476.58,269.74L494.91,219.47L513.24,228.01L531.57,239.21L549.9,335.58L568.23,163.25L586.56,166.98L604.89,258.41L623.22,201.03L641.55,187.09L659.88,277.19L678.21,202.43L696.54,259.34L714.87,296.53L733.2,200.58L751.53,238.65L769.86,196.69L788.19,176.26L806.52,242.42L824.85,170.35L843.18,125.58L861.51,183.91L879.84,193.32L898.17,181.05L916.5,135.04L934.83,97.89L953.16,132.28L971.49,148.14L989.82,113L1008.15,117.54L1026.48,77.07L1044.81,64.68L1063.14,86.18L1081.47,94.96L1099.8,69.94L1118.13,69.27L1136.46,51.6L1154.79,78.48L1173.12,48.94L1191.45,54.94L1209.78,61.23L1228.11,55.97L1246.44,80.96L1264.77,77.58L1283.1,63.17L1301.43,98.89L1319.76,63.41L1338.09,67.92L1356.42,81.88L1374.75,55.42L1393.08,83.91L1411.41,52.72L1429.74,53.11L1448.07,65.93L1466.4,87.34L1484.73,85.93L1503.06,70.24L1521.39,66.75L1539.72,58.93L1558.05,65.47L1576.38,56.9L1594.71,84.83L1613.04,52.8L1631.37,57.26L1649.7,51.41L1658.87,78.35L1668.03,58.94L1677.2,56.07L1686.36,74.05L1695.53,62.49L1704.69,68.92L1713.86,66.45L1723.02,68.18L1732.19,68.77L1741.35,74.49L1750.52,67.51L1759.68,78.5L1768.85,82.15L1778.01,73.32L1787.18,80.08L1796.34,75.52L1805.51,92.16L1814.67,75.67L1823.84,78.69L1833,80.27" style="vector-effect: none; fill: none; stroke: rgb(0, 0, 255); stroke-opacity: 1; stroke-width: 2px; opacity: 1;"/></g><g class="points"/><g class="text"/></g><g class="trace scatter trace4dfd6b" style="stroke-miterlimit: 2;"><g class="fills"><g><path class="js-fill" d="M0,141.18L18.33,281.49L36.66,322.71L54.99,308.73L73.32,236.14L91.65,286.41L109.98,266.96L128.31,284.43L146.64,155.81L164.97,180.92L183.3,127L201.63,145.54L219.96,200.89L238.29,154.62L256.62,105.45L274.95,161.66L293.28,151.19L311.61,120.21L329.94,85.57L348.27,160.33L366.6,141.63L384.93,147.26L403.26,139.39L421.59,167.08L439.92,161.39L458.25,147.73L476.58,170.83L494.91,130.58L513.24,135.07L531.57,144.62L549.9,230.16L568.23,91.34L586.56,92.71L604.89,159.47L623.22,115.16L641.55,104.68L659.88,177.51L678.21,118.39L696.54,160.68L714.87,190.61L733.2,115.17L751.53,147.09L769.86,119.22L788.19,101.3L806.52,151.23L824.85,101.03L843.18,64.21L861.51,105.54L879.84,115.7L898.17,103.81L916.5,72.25L934.83,49.86L953.16,68.58L971.49,78.98L989.82,61.06L1008.15,58.07L1026.48,45.21L1044.81,39.71L1063.14,42.53L1081.47,49.56L1099.8,35.16L1118.13,44.27L1136.46,41.65L1154.79,43.37L1173.12,44.09L1191.45,42.63L1209.78,41.97L1228.11,43.19L1246.44,37.56L1264.77,35.88L1283.1,40.25L1301.43,50.17L1319.76,31L1338.09,39.78L1356.42,46.59L1374.75,44.2L1393.08,47.06L1448.07,43.56L1466.4,43.12L1484.73,43.9L1503.06,41.22L1521.39,45.34L1539.72,47.77L1558.05,46.05L1576.38,46.59L1594.71,49.63L1613.04,46.81L1631.37,48.84L1649.7,46.62L1668.03,49.22L1677.2,50.08L1686.36,50.24L1695.53,56.08L1704.69,50.02L1713.86,56.2L1723.02,56.12L1732.19,59.6L1741.35,60.97L1750.52,58.49L1759.68,67.34L1768.85,67.49L1778.01,63.49L1787.18,63.21L1796.34,64.53L1805.51,76.79L1814.67,63.87L1823.84,64.96L1833,63.56L1833,96.98L1823.84,92.43L1814.67,87.47L1805.51,107.54L1796.34,86.51L1787.18,96.95L1778.01,83.15L1768.85,96.82L1759.68,89.67L1750.52,76.52L1741.35,88.02L1732.19,77.94L1723.02,80.24L1713.86,76.71L1704.69,87.82L1695.53,68.9L1686.36,97.86L1677.2,62.06L1668.03,68.66L1658.87,108.49L1649.7,56.21L1631.37,65.67L1613.04,58.78L1594.71,120.03L1576.38,67.22L1558.05,84.88L1539.72,70.1L1521.39,88.17L1503.06,99.26L1484.73,127.95L1466.4,131.55L1448.07,88.3L1429.74,61.5L1411.41,59.6L1393.08,120.77L1374.75,66.63L1356.42,117.16L1338.09,96.06L1319.76,95.82L1301.43,147.6L1283.1,86.08L1264.77,119.27L1246.44,124.37L1228.11,68.75L1209.78,80.48L1173.12,53.79L1154.79,113.58L1136.46,61.55L1118.13,94.26L1099.8,104.72L1081.47,140.36L1063.14,129.83L1044.81,89.66L1026.48,108.92L1008.15,177.01L989.82,164.93L971.49,217.31L953.16,195.98L934.83,145.92L916.5,197.84L898.17,258.3L879.84,270.94L861.51,262.28L843.18,186.95L824.85,239.67L806.52,333.6L788.19,251.22L769.86,274.17L751.53,330.21L733.2,286L714.87,402.44L696.54,358.01L678.21,286.48L659.88,376.86L641.55,269.49L623.22,286.89L604.89,357.35L586.56,241.26L568.23,235.15L549.9,441L531.57,333.81L513.24,320.94L494.91,308.35L476.58,368.65L458.25,330.28L439.92,371.2L421.59,376.51L403.26,331.29L384.93,343.91L366.6,334.86L348.27,355.86L329.94,224.08L311.61,301.91L293.28,348.3L274.95,352.05L256.62,284.58L238.29,353.11L219.96,428.18L201.63,335.79L183.3,307.92L164.97,392.34L146.64,368.03L128.31,544.32L109.98,522.77L91.65,550.16L73.32,458.86L54.99,580.91L36.66,589L18.33,537.57L0,310.59Z" style="fill: rgb(211, 211, 211); fill-opacity: 0.5; stroke-width: 0;"/></g></g><g class="errorbars"/><g class="lines"><path class="js-line" d="M0,310.59L18.33,537.57L36.66,589L54.99,580.91L73.32,458.86L91.65,550.16L109.98,522.77L128.31,544.32L146.64,368.03L164.97,392.34L183.3,307.92L201.63,335.79L219.96,428.18L238.29,353.11L256.62,284.58L274.95,352.05L293.28,348.3L311.61,301.91L329.94,224.08L348.27,355.86L366.6,334.86L384.93,343.91L403.26,331.29L421.59,376.51L439.92,371.2L458.25,330.28L476.58,368.65L494.91,308.35L513.24,320.94L531.57,333.81L549.9,441L568.23,235.15L586.56,241.26L604.89,357.35L623.22,286.89L641.55,269.49L659.88,376.86L678.21,286.48L696.54,358.01L714.87,402.44L733.2,286L751.53,330.21L769.86,274.17L788.19,251.22L806.52,333.6L824.85,239.67L843.18,186.95L861.51,262.28L879.84,270.94L898.17,258.3L916.5,197.84L934.83,145.92L953.16,195.98L971.49,217.31L989.82,164.93L1008.15,177.01L1026.48,108.92L1044.81,89.66L1063.14,129.83L1081.47,140.36L1099.8,104.72L1118.13,94.26L1136.46,61.55L1154.79,113.58L1173.12,53.79L1209.78,80.48L1228.11,68.75L1246.44,124.37L1264.77,119.27L1283.1,86.08L1301.43,147.6L1319.76,95.82L1338.09,96.06L1356.42,117.16L1374.75,66.63L1393.08,120.77L1411.41,59.6L1429.74,61.5L1448.07,88.3L1466.4,131.55L1484.73,127.95L1503.06,99.26L1521.39,88.17L1539.72,70.1L1558.05,84.88L1576.38,67.22L1594.71,120.03L1613.04,58.78L1631.37,65.67L1649.7,56.21L1658.87,108.49L1668.03,68.66L1677.2,62.06L1686.36,97.86L1695.53,68.9L1704.69,87.82L1713.86,76.71L1723.02,80.24L1732.19,77.94L1741.35,88.02L1750.52,76.52L1759.68,89.67L1768.85,96.82L1778.01,83.15L1787.18,96.95L1796.34,86.51L1805.51,107.54L1814.67,87.47L1823.84,92.43L1833,96.98" style="vector-effect: none; fill: none; stroke: rgb(0, 0, 255); stroke-opacity: 1; stroke-width: 2px; opacity: 1;"/></g><g class="points"/><g class="text"/></g><g class="trace scatter trace0b873b" style="stroke-miterlimit: 2;"><g class="fills"/><g class="errorbars"/><g class="lines"><path class="js-line" d="M0,141.18L18.33,281.49L36.66,322.71L54.99,308.73L73.32,236.14L91.65,286.41L109.98,266.96L128.31,284.43L146.64,155.81L164.97,180.92L183.3,127L201.63,145.54L219.96,200.89L238.29,154.62L256.62,105.45L274.95,161.66L293.28,151.19L311.61,120.21L329.94,85.57L348.27,160.33L366.6,141.63L384.93,147.26L403.26,139.39L421.59,167.08L439.92,161.39L458.25,147.73L476.58,170.83L494.91,130.58L513.24,135.07L531.57,144.62L549.9,230.16L568.23,91.34L586.56,92.71L604.89,159.47L623.22,115.16L641.55,104.68L659.88,177.51L678.21,118.39L696.54,160.68L714.87,190.61L733.2,115.17L751.53,147.09L769.86,119.22L788.19,101.3L806.52,151.23L824.85,101.03L843.18,64.21L861.51,105.54L879.84,115.7L898.17,103.81L916.5,72.25L934.83,49.86L953.16,68.58L971.49,78.98L989.82,61.06L1008.15,58.07L1026.48,45.21L1044.81,39.71L1063.14,42.53L1081.47,49.56L1099.8,35.16L1118.13,44.27L1136.46,41.65L1154.79,43.37L1173.12,44.09L1191.45,42.63L1209.78,41.97L1228.11,43.19L1246.44,37.56L1264.77,35.88L1283.1,40.25L1301.43,50.17L1319.76,31L1338.09,39.78L1356.42,46.59L1374.75,44.2L1393.08,47.06L1448.07,43.56L1466.4,43.12L1484.73,43.9L1503.06,41.22L1521.39,45.34L1539.72,47.77L1558.05,46.05L1576.38,46.59L1594.71,49.63L1613.04,46.81L1631.37,48.84L1649.7,46.62L1668.03,49.22L1677.2,50.08L1686.36,50.24L1695.53,56.08L1704.69,50.02L1713.86,56.2L1723.02,56.12L1732.19,59.6L1741.35,60.97L1750.52,58.49L1759.68,67.34L1768.85,67.49L1778.01,63.49L1787.18,63.21L1796.34,64.53L1805.51,76.79L1814.67,63.87L1823.84,64.96L1833,63.56" style="vector-effect: none; fill: none; stroke: rgb(0, 0, 255); stroke-opacity: 1; stroke-width: 2px; opacity: 1;"/></g><g class="points"/><g class="text"/></g></g></g></g><g class="zerolinelayer-above"/><path class="xlines-above crisp" d="M0,0" style="fill: none;"/><path class="ylines-above crisp" d="M0,0" style="fill: none;"/><g class="overlines-above"/><g class="xaxislayer-above"><g class="xtick"><text text-anchor="middle" x="0" y="741" transform="translate(87,0)" style="font-family: 'Open Sans', verdana, arial, sans-serif; font-size: 20px; fill: rgb(42, 63, 95); fill-opacity: 1; white-space: pre;">0</text></g><g class="xtick"><text text-anchor="middle" x="0" y="741" style="font-family: 'Open Sans', verdana, arial, sans-serif; font-size: 20px; fill: rgb(42, 63, 95); fill-opacity: 1; white-space: pre;" transform="translate(270.3,0)">0.1</text></g><g class="xtick"><text text-anchor="middle" x="0" y="741" style="font-family: 'Open Sans', verdana, arial, sans-serif; font-size: 20px; fill: rgb(42, 63, 95); fill-opacity: 1; white-space: pre;" transform="translate(453.6,0)">0.2</text></g><g class="xtick"><text text-anchor="middle" x="0" y="741" style="font-family: 'Open Sans', verdana, arial, sans-serif; font-size: 20px; fill: rgb(42, 63, 95); fill-opacity: 1; white-space: pre;" transform="translate(636.9,0)">0.3</text></g><g class="xtick"><text text-anchor="middle" x="0" y="741" style="font-family: 'Open Sans', verdana, arial, sans-serif; font-size: 20px; fill: rgb(42, 63, 95); fill-opacity: 1; white-space: pre;" transform="translate(820.2,0)">0.4</text></g><g class="xtick"><text text-anchor="middle" x="0" y="741" style="font-family: 'Open Sans', verdana, arial, sans-serif; font-size: 20px; fill: rgb(42, 63, 95); fill-opacity: 1; white-space: pre;" transform="translate(1003.5,0)">0.5</text></g><g class="xtick"><text text-anchor="middle" x="0" y="741" style="font-family: 'Open Sans', verdana, arial, sans-serif; font-size: 20px; fill: rgb(42, 63, 95); fill-opacity: 1; white-space: pre;" transform="translate(1186.8,0)">0.6</text></g><g class="xtick"><text text-anchor="middle" x="0" y="741" style="font-family: 'Open Sans', verdana, arial, sans-serif; font-size: 20px; fill: rgb(42, 63, 95); fill-opacity: 1; white-space: pre;" transform="translate(1370.1,0)">0.7</text></g><g class="xtick"><text text-anchor="middle" x="0" y="741" style="font-family: 'Open Sans', verdana, arial, sans-serif; font-size: 20px; fill: rgb(42, 63, 95); fill-opacity: 1; white-space: pre;" transform="translate(1553.4,0)">0.8</text></g><g class="xtick"><text text-anchor="middle" x="0" y="741" style="font-family: 'Open Sans', verdana, arial, sans-serif; font-size: 20px; fill: rgb(42, 63, 95); fill-opacity: 1; white-space: pre;" transform="translate(1736.7,0)">0.9</text></g><g class="xtick"><text text-anchor="middle" x="0" y="741" style="font-family: 'Open Sans', verdana, arial, sans-serif; font-size: 20px; fill: rgb(42, 63, 95); fill-opacity: 1; white-space: pre;" transform="translate(1920,0)">1</text></g></g><g class="yaxislayer-above"><g class="ytick"><text text-anchor="end" x="86" y="8.75" transform="translate(0,638.82)" style="font-family: 'Open Sans', verdana, arial, sans-serif; font-size: 25px; fill: rgb(42, 63, 95); fill-opacity: 1; white-space: pre;">380</text></g><g class="ytick"><text text-anchor="end" x="86" y="8.75" style="font-family: 'Open Sans', verdana, arial, sans-serif; font-size: 25px; fill: rgb(42, 63, 95); fill-opacity: 1; white-space: pre;" transform="translate(0,556.51)">400</text></g><g class="ytick"><text text-anchor="end" x="86" y="8.75" style="font-family: 'Open Sans', verdana, arial, sans-serif; font-size: 25px; fill: rgb(42, 63, 95); fill-opacity: 1; white-space: pre;" transform="translate(0,474.2)">420</text></g><g class="ytick"><text text-anchor="end" x="86" y="8.75" style="font-family: 'Open Sans', verdana, arial, sans-serif; font-size: 25px; fill: rgb(42, 63, 95); fill-opacity: 1; white-space: pre;" transform="translate(0,391.88)">440</text></g><g class="ytick"><text text-anchor="end" x="86" y="8.75" style="font-family: 'Open Sans', verdana, arial, sans-serif; font-size: 25px; fill: rgb(42, 63, 95); fill-opacity: 1; white-space: pre;" transform="translate(0,309.57)">460</text></g><g class="ytick"><text text-anchor="end" x="86" y="8.75" style="font-family: 'Open Sans', verdana, arial, sans-serif; font-size: 25px; fill: rgb(42, 63, 95); fill-opacity: 1; white-space: pre;" transform="translate(0,227.26)">480</text></g><g class="ytick"><text text-anchor="end" x="86" y="8.75" style="font-family: 'Open Sans', verdana, arial, sans-serif; font-size: 25px; fill: rgb(42, 63, 95); fill-opacity: 1; white-space: pre;" transform="translate(0,144.94)">500</text></g></g><g class="overaxes-above"/></g></g><g class="polarlayer"/><g class="smithlayer"/><g class="ternarylayer"/><g class="geolayer"/><g class="funnelarealayer"/><g class="pielayer"/><g class="iciclelayer"/><g class="treemaplayer"/><g class="sunburstlayer"/><g class="glimages"/><defs id="topdefs-f1c9d8"><g class="clips"/></defs><g class="layer-above"><g class="imagelayer"/><g class="shapelayer"/></g><g class="infolayer"><g class="g-gtitle"><text class="gtitle" x="100" y="50" text-anchor="start" dy="0em" style="opacity: 1; font-family: 'Open Sans', verdana, arial, sans-serif; font-size: 30px; fill: rgb(42, 63, 95); fill-opacity: 1; white-space: pre;">Convergence Value per λ in CartPole-v1</text></g><g class="g-xtitle"><text class="xtitle" x="1003.5" y="777" text-anchor="middle" style="opacity: 1; font-family: 'Open Sans', verdana, arial, sans-serif; font-size: 25px; fill: rgb(42, 63, 95); fill-opacity: 1; white-space: pre;">λ value</text></g><g class="g-ytitle" transform="translate(1.96875,0)"><text class="ytitle" transform="rotate(-90,21.03125,410)" x="21.03125" y="410" text-anchor="middle" style="opacity: 1; font-family: 'Open Sans', verdana, arial, sans-serif; font-size: 25px; fill: rgb(42, 63, 95); fill-opacity: 1; white-space: pre;">Convergence Value (Mean +- CI 95%)</text></g></g></svg>