<svg class="main-svg" xmlns="http://www.w3.org/2000/svg" xmlns:xlink="http://www.w3.org/1999/xlink" width="2000" height="800" style="" viewBox="0 0 2000 800"><rect x="0" y="0" width="2000" height="800" style="fill: rgb(255, 255, 255); fill-opacity: 1;"/><defs id="defs-7985c5"><g class="clips"><clipPath id="clip7985c5xyplot" class="plotclip"><rect width="1833" height="620"/></clipPath><clipPath class="axesclip" id="clip7985c5x"><rect x="87" y="0" width="1833" height="800"/></clipPath><clipPath class="axesclip" id="clip7985c5y"><rect x="0" y="100" width="2000" height="620"/></clipPath><clipPath class="axesclip" id="clip7985c5xy"><rect x="87" y="100" width="1833" height="620"/></clipPath></g><g class="gradients"/><g class="patterns"/></defs><g class="bglayer"><rect class="bg" x="87" y="100" width="1833" height="620" style="fill: rgb(229, 236, 246); fill-opacity: 1; stroke-width: 0;"/></g><g class="layer-below"><g class="imagelayer"/><g class="shapelayer"/></g><g class="cartesianlayer"><g class="subplot xy"><g class="layer-subplot"><g class="shapelayer"/><g class="imagelayer"/></g><g class="minor-gridlayer"><g class="x"/><g class="y"/></g><g class="gridlayer"><g class="x"><path class="xgrid crisp" transform="translate(270.3,0)" d="M0,100v620" style="stroke: rgb(255, 255, 255); stroke-opacity: 1; stroke-width: 1px;"/><path class="xgrid crisp" transform="translate(453.6,0)" d="M0,100v620" style="stroke: rgb(255, 255, 255); stroke-opacity: 1; stroke-width: 1px;"/><path class="xgrid crisp" transform="translate(636.9,0)" d="M0,100v620" style="stroke: rgb(255, 255, 255); stroke-opacity: 1; stroke-width: 1px;"/><path class="xgrid crisp" transform="translate(820.2,0)" d="M0,100v620" style="stroke: rgb(255, 255, 255); stroke-opacity: 1; stroke-width: 1px;"/><path class="xgrid crisp" transform="translate(1003.5,0)" d="M0,100v620" style="stroke: rgb(255, 255, 255); stroke-opacity: 1; stroke-width: 1px;"/><path class="xgrid crisp" transform="translate(1186.8,0)" d="M0,100v620" style="stroke: rgb(255, 255, 255); stroke-opacity: 1; stroke-width: 1px;"/><path class="xgrid crisp" transform="translate(1370.1,0)" d="M0,100v620" style="stroke: rgb(255, 255, 255); stroke-opacity: 1; stroke-width: 1px;"/><path class="xgrid crisp" transform="translate(1553.4,0)" d="M0,100v620" style="stroke: rgb(255, 255, 255); stroke-opacity: 1; stroke-width: 1px;"/><path class="xgrid crisp" transform="translate(1736.7,0)" d="M0,100v620" style="stroke: rgb(255, 255, 255); stroke-opacity: 1; stroke-width: 1px;"/></g><g class="y"><path class="ygrid crisp" transform="translate(0,689.55)" d="M87,0h1833" style="stroke: rgb(255, 255, 255); stroke-opacity: 1; stroke-width: 1px;"/><path class="ygrid crisp" transform="translate(0,577.1700000000001)" d="M87,0h1833" style="stroke: rgb(255, 255, 255); stroke-opacity: 1; stroke-width: 1px;"/><path class="ygrid crisp" transform="translate(0,464.8)" d="M87,0h1833" style="stroke: rgb(255, 255, 255); stroke-opacity: 1; stroke-width: 1px;"/><path class="ygrid crisp" transform="translate(0,352.43)" d="M87,0h1833" style="stroke: rgb(255, 255, 255); stroke-opacity: 1; stroke-width: 1px;"/><path class="ygrid crisp" transform="translate(0,240.06)" d="M87,0h1833" style="stroke: rgb(255, 255, 255); stroke-opacity: 1; stroke-width: 1px;"/><path class="ygrid crisp" transform="translate(0,127.68)" d="M87,0h1833" style="stroke: rgb(255, 255, 255); stroke-opacity: 1; stroke-width: 1px;"/></g></g><g class="zerolinelayer"><path class="xzl zl crisp" transform="translate(87,0)" d="M0,100v620" style="stroke: rgb(255, 255, 255); stroke-opacity: 1; stroke-width: 2px;"/></g><g class="layer-between"><g class="shapelayer"/><g class="imagelayer"/></g><path class="xlines-below"/><path class="ylines-below"/><g class="overlines-below"/><g class="xaxislayer-below"/><g class="yaxislayer-below"/><g class="overaxes-below"/><g class="overplot"><g class="xy" transform="translate(87,100)" clip-path="url(#clip7985c5xyplot)"><g class="scatterlayer mlayer"><g class="trace scatter trace9a4020" style="stroke-miterlimit: 2; opacity: 1;"><g class="fills"/><g class="errorbars"/><g class="lines"><path class="js-line" d="M0,273.67L18.33,526.96L36.66,588.93L54.99,577.05L73.32,436.17L91.65,535.79L109.98,502.47L128.31,533.67L146.64,324L164.97,357.63L183.3,264.15L201.63,298.52L219.96,402.27L238.29,322.23L256.62,231.41L274.95,310.05L293.28,309.61L311.61,256.63L329.94,173.08L348.27,318.57L366.6,292.51L384.93,304.76L403.26,293.1L421.59,330.59L439.92,329.25L458.25,295.44L476.58,326.94L494.91,272.56L513.24,279.6L531.57,285.02L549.9,421.09L568.23,199.11L586.56,196.18L604.89,315.36L623.22,238.57L641.55,222.14L659.88,345.47L678.21,241.71L696.54,337.57L714.87,372.08L733.2,237.74L751.53,288.49L769.86,234.97L788.19,209.1L806.52,298.53L824.85,196.61L843.18,132.07L861.51,217.31L879.84,226.82L898.17,217.74L916.5,144.31L934.83,97.6L953.16,159.05L971.49,169.86L989.82,105.15L1008.15,114.68L1026.48,72.43L1044.81,53.47L1063.14,83L1081.47,93.78L1099.8,58.42L1118.13,64.09L1136.46,34.91L1154.79,81.27L1173.12,31.05L1191.45,39.92L1209.78,44.18L1228.11,50.76L1246.44,77.13L1264.77,61.84L1283.1,53.26L1301.43,104.87L1319.76,65.53L1338.09,58.27L1356.42,74.59L1374.75,40.84L1393.08,77.62L1411.41,44.11L1429.74,36.75L1448.07,64.74L1466.4,83.35L1484.73,83.55L1503.06,67.08L1521.39,56.16L1539.72,53.39L1558.05,56.34L1576.38,41.33L1594.71,78.41L1613.04,37.91L1631.37,41.39L1649.7,38.97L1658.87,70.3L1668.03,51.23L1677.2,44.38L1686.36,67.58L1695.53,49.22L1704.69,63.06L1713.86,54.42L1723.02,62.06L1732.19,61.73L1741.35,64.32L1750.52,60.34L1759.68,71.89L1768.85,80.39L1778.01,70.93L1787.18,74.75L1796.34,71.47L1805.51,98.13L1814.67,78.33L1823.84,71.05L1833,73.43" style="vector-effect: none; fill: none; stroke: rgb(0, 0, 255); stroke-opacity: 1; stroke-width: 2px; opacity: 1;"/></g><g class="points"/><g class="text"/></g><g class="trace scatter tracecc2d31" style="stroke-miterlimit: 2;"><g class="fills"><g><path class="js-fill" d="M0,273.61L18.33,526.87L36.66,588.87L54.99,576.97L73.32,436.1L91.65,535.69L109.98,502.41L128.31,533.56L146.64,323.94L164.97,357.53L183.3,264.09L201.63,298.43L219.96,402.16L238.29,322.08L256.62,231.35L274.95,309.96L293.28,309.52L311.61,256.54L329.94,172.97L348.27,318.42L366.6,292.43L384.93,304.67L403.26,293L421.59,330.49L439.92,329.19L458.25,295.32L476.58,326.82L494.91,272.44L513.24,279.5L531.57,284.91L549.9,420.97L568.23,198.97L586.56,196.06L604.89,315.28L623.22,238.46L641.55,222.06L659.88,345.34L678.21,241.6L696.54,337.41L714.87,372L733.2,237.66L751.53,288.39L769.86,234.8L788.19,208.98L806.52,298.42L824.85,196.45L843.18,131.96L861.51,217.2L879.84,226.68L898.17,217.6L916.5,144.21L934.83,97.49L953.16,158.95L971.49,169.77L989.82,105.01L1008.15,114.55L1026.48,72.36L1044.81,53.41L1063.14,82.91L1081.47,93.68L1099.8,58.36L1118.13,63.96L1136.46,34.88L1154.79,81.19L1173.12,31L1191.45,39.83L1209.78,44.06L1228.11,50.67L1246.44,77.08L1264.77,61.73L1283.1,53.15L1301.43,104.81L1319.76,65.38L1338.09,58.19L1356.42,74.47L1374.75,40.73L1393.08,77.46L1411.41,43.99L1429.74,36.65L1448.07,64.59L1466.4,83.24L1484.73,83.44L1503.06,66.96L1521.39,56.04L1539.72,53.25L1558.05,56.21L1576.38,41.21L1594.71,78.24L1613.04,37.82L1631.37,41.28L1649.7,38.88L1658.87,70.17L1668.03,51.09L1677.2,44.24L1686.36,67.42L1695.53,49.07L1704.69,62.9L1713.86,54.26L1723.02,61.9L1732.19,61.55L1741.35,64.16L1750.52,60.17L1759.68,71.69L1768.85,80.16L1778.01,70.72L1787.18,74.53L1796.34,71.27L1805.51,97.87L1814.67,78.12L1823.84,70.86L1833,73.23L1833,73.63L1823.84,71.25L1814.67,78.55L1805.51,98.38L1796.34,71.66L1787.18,74.97L1778.01,71.14L1768.85,80.61L1759.68,72.09L1750.52,60.51L1741.35,64.47L1732.19,61.91L1723.02,62.21L1713.86,54.59L1704.69,63.22L1695.53,49.38L1686.36,67.74L1677.2,44.53L1668.03,51.36L1658.87,70.42L1649.7,39.06L1631.37,41.49L1613.04,38.01L1594.71,78.57L1576.38,41.45L1558.05,56.47L1539.72,53.52L1521.39,56.27L1503.06,67.19L1484.73,83.67L1466.4,83.47L1448.07,64.89L1429.74,36.85L1411.41,44.23L1393.08,77.77L1374.75,40.96L1356.42,74.71L1338.09,58.35L1319.76,65.67L1301.43,104.94L1283.1,53.36L1264.77,61.95L1246.44,77.19L1228.11,50.86L1209.78,44.29L1191.45,40.01L1173.12,31.1L1154.79,81.35L1136.46,34.95L1118.13,64.21L1099.8,58.49L1081.47,93.89L1063.14,83.08L1044.81,53.53L1026.48,72.49L1008.15,114.81L989.82,105.29L971.49,169.94L953.16,159.15L934.83,97.72L916.5,144.4L898.17,217.89L879.84,226.96L861.51,217.41L843.18,132.18L824.85,196.76L806.52,298.64L788.19,209.22L769.86,235.14L751.53,288.58L733.2,237.83L714.87,372.15L696.54,337.73L678.21,241.81L659.88,345.6L641.55,222.21L623.22,238.68L604.89,315.44L586.56,196.31L568.23,199.25L549.9,421.22L531.57,285.13L513.24,279.69L494.91,272.68L476.58,327.06L458.25,295.56L439.92,329.31L421.59,330.69L403.26,293.2L384.93,304.85L366.6,292.59L348.27,318.72L329.94,173.19L311.61,256.72L293.28,309.7L274.95,310.14L256.62,231.48L238.29,322.37L219.96,402.38L201.63,298.61L183.3,264.2L164.97,357.74L146.64,324.05L128.31,533.78L109.98,502.54L91.65,535.88L73.32,436.24L54.99,577.13L36.66,589L18.33,527.06L0,273.73Z" style="fill: rgb(211, 211, 211); fill-opacity: 0.5; stroke-width: 0;"/></g></g><g class="errorbars"/><g class="lines"><path class="js-line" d="M0,273.73L18.33,527.06L36.66,589L54.99,577.13L73.32,436.24L91.65,535.88L109.98,502.54L128.31,533.78L146.64,324.05L164.97,357.74L183.3,264.2L201.63,298.61L219.96,402.38L238.29,322.37L256.62,231.48L274.95,310.14L293.28,309.7L311.61,256.72L329.94,173.19L348.27,318.72L366.6,292.59L384.93,304.85L403.26,293.2L421.59,330.69L439.92,329.31L458.25,295.56L476.58,327.06L494.91,272.68L513.24,279.69L531.57,285.13L549.9,421.22L568.23,199.25L586.56,196.31L604.89,315.44L623.22,238.68L641.55,222.21L659.88,345.6L678.21,241.81L696.54,337.73L714.87,372.15L733.2,237.83L751.53,288.58L769.86,235.14L788.19,209.22L806.52,298.64L824.85,196.76L843.18,132.18L861.51,217.41L879.84,226.96L898.17,217.89L916.5,144.4L934.83,97.72L953.16,159.15L971.49,169.94L989.82,105.29L1008.15,114.81L1026.48,72.49L1044.81,53.53L1063.14,83.08L1081.47,93.89L1099.8,58.49L1118.13,64.21L1136.46,34.95L1154.79,81.35L1173.12,31.1L1191.45,40.01L1209.78,44.29L1228.11,50.86L1246.44,77.19L1264.77,61.95L1283.1,53.36L1301.43,104.94L1319.76,65.67L1338.09,58.35L1356.42,74.71L1374.75,40.96L1393.08,77.77L1411.41,44.23L1429.74,36.85L1448.07,64.89L1466.4,83.47L1484.73,83.67L1503.06,67.19L1521.39,56.27L1539.72,53.52L1558.05,56.47L1576.38,41.45L1594.71,78.57L1613.04,38.01L1631.37,41.49L1649.7,39.06L1658.87,70.42L1668.03,51.36L1677.2,44.53L1686.36,67.74L1695.53,49.38L1704.69,63.22L1713.86,54.59L1723.02,62.21L1732.19,61.91L1741.35,64.47L1750.52,60.51L1759.68,72.09L1768.85,80.61L1778.01,71.14L1787.18,74.97L1796.34,71.66L1805.51,98.38L1814.67,78.55L1823.84,71.25L1833,73.63" style="vector-effect: none; fill: none; stroke: rgb(0, 0, 255); stroke-opacity: 1; stroke-width: 2px; opacity: 1;"/></g><g class="points"/><g class="text"/></g><g class="trace scatter trace4a10da" style="stroke-miterlimit: 2;"><g class="fills"/><g class="errorbars"/><g class="lines"><path class="js-line" d="M0,273.61L18.33,526.87L36.66,588.87L54.99,576.97L73.32,436.1L91.65,535.69L109.98,502.41L128.31,533.56L146.64,323.94L164.97,357.53L183.3,264.09L201.63,298.43L219.96,402.16L238.29,322.08L256.62,231.35L274.95,309.96L293.28,309.52L311.61,256.54L329.94,172.97L348.27,318.42L366.6,292.43L384.93,304.67L403.26,293L421.59,330.49L439.92,329.19L458.25,295.32L476.58,326.82L494.91,272.44L513.24,279.5L531.57,284.91L549.9,420.97L568.23,198.97L586.56,196.06L604.89,315.28L623.22,238.46L641.55,222.06L659.88,345.34L678.21,241.6L696.54,337.41L714.87,372L733.2,237.66L751.53,288.39L769.86,234.8L788.19,208.98L806.52,298.42L824.85,196.45L843.18,131.96L861.51,217.2L879.84,226.68L898.17,217.6L916.5,144.21L934.83,97.49L953.16,158.95L971.49,169.77L989.82,105.01L1008.15,114.55L1026.48,72.36L1044.81,53.41L1063.14,82.91L1081.47,93.68L1099.8,58.36L1118.13,63.96L1136.46,34.88L1154.79,81.19L1173.12,31L1191.45,39.83L1209.78,44.06L1228.11,50.67L1246.44,77.08L1264.77,61.73L1283.1,53.15L1301.43,104.81L1319.76,65.38L1338.09,58.19L1356.42,74.47L1374.75,40.73L1393.08,77.46L1411.41,43.99L1429.74,36.65L1448.07,64.59L1466.4,83.24L1484.73,83.44L1503.06,66.96L1521.39,56.04L1539.72,53.25L1558.05,56.21L1576.38,41.21L1594.71,78.24L1613.04,37.82L1631.37,41.28L1649.7,38.88L1658.87,70.17L1668.03,51.09L1677.2,44.24L1686.36,67.42L1695.53,49.07L1704.69,62.9L1713.86,54.26L1723.02,61.9L1732.19,61.55L1741.35,64.16L1750.52,60.17L1759.68,71.69L1768.85,80.16L1778.01,70.72L1787.18,74.53L1796.34,71.27L1805.51,97.87L1814.67,78.12L1823.84,70.86L1833,73.23" style="vector-effect: none; fill: none; stroke: rgb(0, 0, 255); stroke-opacity: 1; stroke-width: 2px; opacity: 1;"/></g><g class="points"/><g class="text"/></g></g></g></g><g class="zerolinelayer-above"/><path class="xlines-above crisp" d="M0,0" style="fill: none;"/><path class="ylines-above crisp" d="M0,0" style="fill: none;"/><g class="overlines-above"/><g class="xaxislayer-above"><g class="xtick"><text text-anchor="middle" x="0" y="741" transform="translate(87,0)" style="font-family: 'Open Sans', verdana, arial, sans-serif; font-size: 20px; fill: rgb(42, 63, 95); fill-opacity: 1; white-space: pre;">0</text></g><g class="xtick"><text text-anchor="middle" x="0" y="741" style="font-family: 'Open Sans', verdana, arial, sans-serif; font-size: 20px; fill: rgb(42, 63, 95); fill-opacity: 1; white-space: pre;" transform="translate(270.3,0)">0.1</text></g><g class="xtick"><text text-anchor="middle" x="0" y="741" style="font-family: 'Open Sans', verdana, arial, sans-serif; font-size: 20px; fill: rgb(42, 63, 95); fill-opacity: 1; white-space: pre;" transform="translate(453.6,0)">0.2</text></g><g class="xtick"><text text-anchor="middle" x="0" y="741" style="font-family: 'Open Sans', verdana, arial, sans-serif; font-size: 20px; fill: rgb(42, 63, 95); fill-opacity: 1; white-space: pre;" transform="translate(636.9,0)">0.3</text></g><g class="xtick"><text text-anchor="middle" x="0" y="741" style="font-family: 'Open Sans', verdana, arial, sans-serif; font-size: 20px; fill: rgb(42, 63, 95); fill-opacity: 1; white-space: pre;" transform="translate(820.2,0)">0.4</text></g><g class="xtick"><text text-anchor="middle" x="0" y="741" style="font-family: 'Open Sans', verdana, arial, sans-serif; font-size: 20px; fill: rgb(42, 63, 95); fill-opacity: 1; white-space: pre;" transform="translate(1003.5,0)">0.5</text></g><g class="xtick"><text text-anchor="middle" x="0" y="741" style="font-family: 'Open Sans', verdana, arial, sans-serif; font-size: 20px; fill: rgb(42, 63, 95); fill-opacity: 1; white-space: pre;" transform="translate(1186.8,0)">0.6</text></g><g class="xtick"><text text-anchor="middle" x="0" y="741" style="font-family: 'Open Sans', verdana, arial, sans-serif; font-size: 20px; fill: rgb(42, 63, 95); fill-opacity: 1; white-space: pre;" transform="translate(1370.1,0)">0.7</text></g><g class="xtick"><text text-anchor="middle" x="0" y="741" style="font-family: 'Open Sans', verdana, arial, sans-serif; font-size: 20px; fill: rgb(42, 63, 95); fill-opacity: 1; white-space: pre;" transform="translate(1553.4,0)">0.8</text></g><g class="xtick"><text text-anchor="middle" x="0" y="741" style="font-family: 'Open Sans', verdana, arial, sans-serif; font-size: 20px; fill: rgb(42, 63, 95); fill-opacity: 1; white-space: pre;" transform="translate(1736.7,0)">0.9</text></g><g class="xtick"><text text-anchor="middle" x="0" y="741" style="font-family: 'Open Sans', verdana, arial, sans-serif; font-size: 20px; fill: rgb(42, 63, 95); fill-opacity: 1; white-space: pre;" transform="translate(1920,0)">1</text></g></g><g class="yaxislayer-above"><g class="ytick"><text text-anchor="end" x="86" y="8.75" transform="translate(0,689.55)" style="font-family: 'Open Sans', verdana, arial, sans-serif; font-size: 25px; fill: rgb(42, 63, 95); fill-opacity: 1; white-space: pre;">400</text></g><g class="ytick"><text text-anchor="end" x="86" y="8.75" style="font-family: 'Open Sans', verdana, arial, sans-serif; font-size: 25px; fill: rgb(42, 63, 95); fill-opacity: 1; white-space: pre;" transform="translate(0,577.1700000000001)">420</text></g><g class="ytick"><text text-anchor="end" x="86" y="8.75" style="font-family: 'Open Sans', verdana, arial, sans-serif; font-size: 25px; fill: rgb(42, 63, 95); fill-opacity: 1; white-space: pre;" transform="translate(0,464.8)">440</text></g><g class="ytick"><text text-anchor="end" x="86" y="8.75" style="font-family: 'Open Sans', verdana, arial, sans-serif; font-size: 25px; fill: rgb(42, 63, 95); fill-opacity: 1; white-space: pre;" transform="translate(0,352.43)">460</text></g><g class="ytick"><text text-anchor="end" x="86" y="8.75" style="font-family: 'Open Sans', verdana, arial, sans-serif; font-size: 25px; fill: rgb(42, 63, 95); fill-opacity: 1; white-space: pre;" transform="translate(0,240.06)">480</text></g><g class="ytick"><text text-anchor="end" x="86" y="8.75" style="font-family: 'Open Sans', verdana, arial, sans-serif; font-size: 25px; fill: rgb(42, 63, 95); fill-opacity: 1; white-space: pre;" transform="translate(0,127.68)">500</text></g></g><g class="overaxes-above"/></g></g><g class="polarlayer"/><g class="smithlayer"/><g class="ternarylayer"/><g class="geolayer"/><g class="funnelarealayer"/><g class="pielayer"/><g class="iciclelayer"/><g class="treemaplayer"/><g class="sunburstlayer"/><g class="glimages"/><defs id="topdefs-7985c5"><g class="clips"/></defs><g class="layer-above"><g class="imagelayer"/><g class="shapelayer"/></g><g class="infolayer"><g class="g-gtitle"><text class="gtitle" x="100" y="50" text-anchor="start" dy="0em" style="opacity: 1; font-family: 'Open Sans', verdana, arial, sans-serif; font-size: 30px; fill: rgb(42, 63, 95); fill-opacity: 1; white-space: pre;">Convergence Value per λ in CartPole-v1</text></g><g class="g-xtitle"><text class="xtitle" x="1003.5" y="777" text-anchor="middle" style="opacity: 1; font-family: 'Open Sans', verdana, arial, sans-serif; font-size: 25px; fill: rgb(42, 63, 95); fill-opacity: 1; white-space: pre;">λ value</text></g><g class="g-ytitle" transform="translate(1.96875,0)"><text class="ytitle" transform="rotate(-90,21.03125,410)" x="21.03125" y="410" text-anchor="middle" style="opacity: 1; font-family: 'Open Sans', verdana, arial, sans-serif; font-size: 25px; fill: rgb(42, 63, 95); fill-opacity: 1; white-space: pre;">Convergence Value (Mean +- CI 95%)</text></g></g></svg>