<svg class="main-svg" xmlns="http://www.w3.org/2000/svg" xmlns:xlink="http://www.w3.org/1999/xlink" width="2000" height="800" style="" viewBox="0 0 2000 800"><rect x="0" y="0" width="2000" height="800" style="fill: rgb(255, 255, 255); fill-opacity: 1;"/><defs id="defs-f84391"><g class="clips"><clipPath id="clipf84391xyplot" class="plotclip"><rect width="1820" height="620"/></clipPath><clipPath class="axesclip" id="clipf84391x"><rect x="100" y="0" width="1820" height="800"/></clipPath><clipPath class="axesclip" id="clipf84391y"><rect x="0" y="100" width="2000" height="620"/></clipPath><clipPath class="axesclip" id="clipf84391xy"><rect x="100" y="100" width="1820" height="620"/></clipPath></g><g class="gradients"/><g class="patterns"/></defs><g class="bglayer"><rect class="bg" x="100" y="100" width="1820" height="620" style="fill: rgb(229, 236, 246); fill-opacity: 1; stroke-width: 0;"/></g><g class="layer-below"><g class="imagelayer"/><g class="shapelayer"/></g><g class="cartesianlayer"><g class="subplot xy"><g class="layer-subplot"><g class="shapelayer"/><g class="imagelayer"/></g><g class="minor-gridlayer"><g class="x"/><g class="y"/></g><g class="gridlayer"><g class="x"><path class="xgrid crisp" transform="translate(282,0)" d="M0,100v620" style="stroke: rgb(255, 255, 255); stroke-opacity: 1; stroke-width: 1px;"/><path class="xgrid crisp" transform="translate(464,0)" d="M0,100v620" style="stroke: rgb(255, 255, 255); stroke-opacity: 1; stroke-width: 1px;"/><path class="xgrid crisp" transform="translate(646,0)" d="M0,100v620" style="stroke: rgb(255, 255, 255); stroke-opacity: 1; stroke-width: 1px;"/><path class="xgrid crisp" transform="translate(828,0)" d="M0,100v620" style="stroke: rgb(255, 255, 255); stroke-opacity: 1; stroke-width: 1px;"/><path class="xgrid crisp" transform="translate(1010,0)" d="M0,100v620" style="stroke: rgb(255, 255, 255); stroke-opacity: 1; stroke-width: 1px;"/><path class="xgrid crisp" transform="translate(1192,0)" d="M0,100v620" style="stroke: rgb(255, 255, 255); stroke-opacity: 1; stroke-width: 1px;"/><path class="xgrid crisp" transform="translate(1374,0)" d="M0,100v620" style="stroke: rgb(255, 255, 255); stroke-opacity: 1; stroke-width: 1px;"/><path class="xgrid crisp" transform="translate(1556,0)" d="M0,100v620" style="stroke: rgb(255, 255, 255); stroke-opacity: 1; stroke-width: 1px;"/><path class="xgrid crisp" transform="translate(1738,0)" d="M0,100v620" style="stroke: rgb(255, 255, 255); stroke-opacity: 1; stroke-width: 1px;"/></g><g class="y"><path class="ygrid crisp" transform="translate(0,642.24)" d="M100,0h1820" style="stroke: rgb(255, 255, 255); stroke-opacity: 1; stroke-width: 1px;"/><path class="ygrid crisp" transform="translate(0,558)" d="M100,0h1820" style="stroke: rgb(255, 255, 255); stroke-opacity: 1; stroke-width: 1px;"/><path class="ygrid crisp" transform="translate(0,473.77)" d="M100,0h1820" style="stroke: rgb(255, 255, 255); stroke-opacity: 1; stroke-width: 1px;"/><path class="ygrid crisp" transform="translate(0,389.54)" d="M100,0h1820" style="stroke: rgb(255, 255, 255); stroke-opacity: 1; stroke-width: 1px;"/><path class="ygrid crisp" transform="translate(0,305.31)" d="M100,0h1820" style="stroke: rgb(255, 255, 255); stroke-opacity: 1; stroke-width: 1px;"/><path class="ygrid crisp" transform="translate(0,221.07)" d="M100,0h1820" style="stroke: rgb(255, 255, 255); stroke-opacity: 1; stroke-width: 1px;"/><path class="ygrid crisp" transform="translate(0,136.84)" d="M100,0h1820" style="stroke: rgb(255, 255, 255); stroke-opacity: 1; stroke-width: 1px;"/></g></g><g class="zerolinelayer"><path class="xzl zl crisp" transform="translate(100,0)" d="M0,100v620" style="stroke: rgb(255, 255, 255); stroke-opacity: 1; stroke-width: 2px;"/></g><g class="layer-between"><g class="shapelayer"/><g class="imagelayer"/></g><path class="xlines-below"/><path class="ylines-below"/><g class="overlines-below"/><g class="xaxislayer-below"/><g class="yaxislayer-below"/><g class="overaxes-below"/><g class="overplot"><g class="xy" transform="translate(100,100)" clip-path="url(#clipf84391xyplot)"><g class="scatterlayer mlayer"><g class="trace scatter traceb9300c" style="stroke-miterlimit: 2; opacity: 1;"><g class="fills"/><g class="errorbars"/><g class="lines"><path class="js-line" d="M0,326.55L18.2,267.48L36.4,511.9L54.6,525.41L72.8,182.2L91,546.69L109.2,226.66L127.4,91.75L145.6,66.88L163.8,335.39L182,289.83L200.2,66.41L218.4,492.38L236.6,179.37L254.8,93.85L273,355.53L291.2,502.11L309.4,31L327.6,378.93L345.8,575.51L364,404.5L382.2,254.98L400.4,93.8L418.6,256.32L436.8,384.16L455,457.94L473.2,325.61L491.4,48.93L509.6,547.63L527.8,564.13L546,578.51L564.2,286.19L582.4,34.8L600.6,270.85L618.8,316.84L637,302.08L655.2,297.46L673.4,164.49L691.6,296.49L709.8,535.83L728,143.15L746.2,241.95L764.4,497.16L782.6,219.69L800.8,196.68L819,154.01L837.2,333.09L855.4,136.8L873.6,219.36L891.8,243.83L910,347.39L928.2,315.15L946.4,88.05L964.6,186.55L982.8,467.31L1001,460.24L1019.2,320.87L1037.4,348.24L1055.6,463.43L1073.8,507.66L1092,308.7L1110.2,399.77L1128.4,429.22L1146.6,470.47L1164.8,389.17L1183,410.59L1201.2,504.59L1219.4,422.59L1237.6,548.65L1255.8,473.55L1274,539.05L1292.2,542.94L1310.4,543.97L1328.6,558.53L1346.8,558.05L1365,547.44L1383.2,572.5L1401.4,565.21L1419.6,556.2L1437.8,575.47L1456,582.12L1474.2,585.7L1492.4,575.12L1510.6,571.76L1528.8,566.68L1547,575.96L1565.2,573.61L1583.4,589L1601.6,576.9L1619.8,540.45L1638,576.23L1647.1,579.46L1656.2,579.51L1665.3,568.56L1674.4,580.85L1683.5,579.02L1692.6,581.93L1701.7,578.61L1710.8,564.47L1719.9,581.37L1729,580.36L1738.1,575.19L1747.2,566.01L1756.3,564.45L1765.4,563.96L1774.5,557.92L1783.6,534.67L1792.7,567.68L1801.8,538.88L1810.9,537.03L1820,513.04" style="vector-effect: none; fill: none; stroke: rgb(99, 110, 250); stroke-opacity: 1; stroke-width: 2px; opacity: 1;"/></g><g class="points"/><g class="text"/></g></g></g></g><g class="zerolinelayer-above"/><path class="xlines-above crisp" d="M0,0" style="fill: none;"/><path class="ylines-above crisp" d="M0,0" style="fill: none;"/><g class="overlines-above"/><g class="xaxislayer-above"><g class="xtick"><text text-anchor="middle" x="0" y="741" transform="translate(100,0)" style="font-family: 'Open Sans', verdana, arial, sans-serif; font-size: 20px; fill: rgb(42, 63, 95); fill-opacity: 1; white-space: pre;">0</text></g><g class="xtick"><text text-anchor="middle" x="0" y="741" style="font-family: 'Open Sans', verdana, arial, sans-serif; font-size: 20px; fill: rgb(42, 63, 95); fill-opacity: 1; white-space: pre;" transform="translate(282,0)">0.1</text></g><g class="xtick"><text text-anchor="middle" x="0" y="741" style="font-family: 'Open Sans', verdana, arial, sans-serif; font-size: 20px; fill: rgb(42, 63, 95); fill-opacity: 1; white-space: pre;" transform="translate(464,0)">0.2</text></g><g class="xtick"><text text-anchor="middle" x="0" y="741" style="font-family: 'Open Sans', verdana, arial, sans-serif; font-size: 20px; fill: rgb(42, 63, 95); fill-opacity: 1; white-space: pre;" transform="translate(646,0)">0.3</text></g><g class="xtick"><text text-anchor="middle" x="0" y="741" style="font-family: 'Open Sans', verdana, arial, sans-serif; font-size: 20px; fill: rgb(42, 63, 95); fill-opacity: 1; white-space: pre;" transform="translate(828,0)">0.4</text></g><g class="xtick"><text text-anchor="middle" x="0" y="741" style="font-family: 'Open Sans', verdana, arial, sans-serif; font-size: 20px; fill: rgb(42, 63, 95); fill-opacity: 1; white-space: pre;" transform="translate(1010,0)">0.5</text></g><g class="xtick"><text text-anchor="middle" x="0" y="741" style="font-family: 'Open Sans', verdana, arial, sans-serif; font-size: 20px; fill: rgb(42, 63, 95); fill-opacity: 1; white-space: pre;" transform="translate(1192,0)">0.6</text></g><g class="xtick"><text text-anchor="middle" x="0" y="741" style="font-family: 'Open Sans', verdana, arial, sans-serif; font-size: 20px; fill: rgb(42, 63, 95); fill-opacity: 1; white-space: pre;" transform="translate(1374,0)">0.7</text></g><g class="xtick"><text text-anchor="middle" x="0" y="741" style="font-family: 'Open Sans', verdana, arial, sans-serif; font-size: 20px; fill: rgb(42, 63, 95); fill-opacity: 1; white-space: pre;" transform="translate(1556,0)">0.8</text></g><g class="xtick"><text text-anchor="middle" x="0" y="741" style="font-family: 'Open Sans', verdana, arial, sans-serif; font-size: 20px; fill: rgb(42, 63, 95); fill-opacity: 1; white-space: pre;" transform="translate(1738,0)">0.9</text></g><g class="xtick"><text text-anchor="middle" x="0" y="741" style="font-family: 'Open Sans', verdana, arial, sans-serif; font-size: 20px; fill: rgb(42, 63, 95); fill-opacity: 1; white-space: pre;" transform="translate(1920,0)">1</text></g></g><g class="yaxislayer-above"><g class="ytick"><text text-anchor="end" x="99" y="8.75" transform="translate(0,642.24)" style="font-family: 'Open Sans', verdana, arial, sans-serif; font-size: 25px; fill: rgb(42, 63, 95); fill-opacity: 1; white-space: pre;">100k</text></g><g class="ytick"><text text-anchor="end" x="99" y="8.75" style="font-family: 'Open Sans', verdana, arial, sans-serif; font-size: 25px; fill: rgb(42, 63, 95); fill-opacity: 1; white-space: pre;" transform="translate(0,558)">150k</text></g><g class="ytick"><text text-anchor="end" x="99" y="8.75" style="font-family: 'Open Sans', verdana, arial, sans-serif; font-size: 25px; fill: rgb(42, 63, 95); fill-opacity: 1; white-space: pre;" transform="translate(0,473.77)">200k</text></g><g class="ytick"><text text-anchor="end" x="99" y="8.75" style="font-family: 'Open Sans', verdana, arial, sans-serif; font-size: 25px; fill: rgb(42, 63, 95); fill-opacity: 1; white-space: pre;" transform="translate(0,389.54)">250k</text></g><g class="ytick"><text text-anchor="end" x="99" y="8.75" style="font-family: 'Open Sans', verdana, arial, sans-serif; font-size: 25px; fill: rgb(42, 63, 95); fill-opacity: 1; white-space: pre;" transform="translate(0,305.31)">300k</text></g><g class="ytick"><text text-anchor="end" x="99" y="8.75" style="font-family: 'Open Sans', verdana, arial, sans-serif; font-size: 25px; fill: rgb(42, 63, 95); fill-opacity: 1; white-space: pre;" transform="translate(0,221.07)">350k</text></g><g class="ytick"><text text-anchor="end" x="99" y="8.75" style="font-family: 'Open Sans', verdana, arial, sans-serif; font-size: 25px; fill: rgb(42, 63, 95); fill-opacity: 1; white-space: pre;" transform="translate(0,136.84)">400k</text></g></g><g class="overaxes-above"/></g></g><g class="polarlayer"/><g class="smithlayer"/><g class="ternarylayer"/><g class="geolayer"/><g class="funnelarealayer"/><g class="pielayer"/><g class="iciclelayer"/><g class="treemaplayer"/><g class="sunburstlayer"/><g class="glimages"/><defs id="topdefs-f84391"><g class="clips"/></defs><g class="layer-above"><g class="imagelayer"/><g class="shapelayer"/></g><g class="infolayer"><g class="g-gtitle"><text class="gtitle" x="100" y="50" text-anchor="start" dy="0em" style="opacity: 1; font-family: 'Open Sans', verdana, arial, sans-serif; font-size: 30px; fill: rgb(42, 63, 95); fill-opacity: 1; white-space: pre;">Convergence Speed per λ in CartPole-v1</text></g><g class="g-xtitle"><text class="xtitle" x="1010" y="777" text-anchor="middle" style="opacity: 1; font-family: 'Open Sans', verdana, arial, sans-serif; font-size: 25px; fill: rgb(42, 63, 95); fill-opacity: 1; white-space: pre;">λ value</text></g><g class="g-ytitle" transform="translate(1.46875,0)"><text class="ytitle" transform="rotate(-90,21.53125,410)" x="21.53125" y="410" text-anchor="middle" style="opacity: 1; font-family: 'Open Sans', verdana, arial, sans-serif; font-size: 25px; fill: rgb(42, 63, 95); fill-opacity: 1; white-space: pre;">Steps to Convergence</text></g></g></svg>