<svg class="main-svg" xmlns="http://www.w3.org/2000/svg" xmlns:xlink="http://www.w3.org/1999/xlink" width="2000" height="800" style="" viewBox="0 0 2000 800"><rect x="0" y="0" width="2000" height="800" style="fill: rgb(255, 255, 255); fill-opacity: 1;"/><defs id="defs-735b03"><g class="clips"><clipPath id="clip735b03xyplot" class="plotclip"><rect width="1833" height="620"/></clipPath><clipPath class="axesclip" id="clip735b03x"><rect x="87" y="0" width="1833" height="800"/></clipPath><clipPath class="axesclip" id="clip735b03y"><rect x="0" y="100" width="2000" height="620"/></clipPath><clipPath class="axesclip" id="clip735b03xy"><rect x="87" y="100" width="1833" height="620"/></clipPath></g><g class="gradients"/><g class="patterns"/></defs><g class="bglayer"><rect class="bg" x="87" y="100" width="1833" height="620" style="fill: rgb(229, 236, 246); fill-opacity: 1; stroke-width: 0;"/></g><g class="layer-below"><g class="imagelayer"/><g class="shapelayer"/></g><g class="cartesianlayer"><g class="subplot xy"><g class="layer-subplot"><g class="shapelayer"/><g class="imagelayer"/></g><g class="minor-gridlayer"><g class="x"/><g class="y"/></g><g class="gridlayer"><g class="x"><path class="xgrid crisp" transform="translate(270.3,0)" d="M0,100v620" style="stroke: rgb(255, 255, 255); stroke-opacity: 1; stroke-width: 1px;"/><path class="xgrid crisp" transform="translate(453.6,0)" d="M0,100v620" style="stroke: rgb(255, 255, 255); stroke-opacity: 1; stroke-width: 1px;"/><path class="xgrid crisp" transform="translate(636.9,0)" d="M0,100v620" style="stroke: rgb(255, 255, 255); stroke-opacity: 1; stroke-width: 1px;"/><path class="xgrid crisp" transform="translate(820.2,0)" d="M0,100v620" style="stroke: rgb(255, 255, 255); stroke-opacity: 1; stroke-width: 1px;"/><path class="xgrid crisp" transform="translate(1003.5,0)" d="M0,100v620" style="stroke: rgb(255, 255, 255); stroke-opacity: 1; stroke-width: 1px;"/><path class="xgrid crisp" transform="translate(1186.8,0)" d="M0,100v620" style="stroke: rgb(255, 255, 255); stroke-opacity: 1; stroke-width: 1px;"/><path class="xgrid crisp" transform="translate(1370.1,0)" d="M0,100v620" style="stroke: rgb(255, 255, 255); stroke-opacity: 1; stroke-width: 1px;"/><path class="xgrid crisp" transform="translate(1553.4,0)" d="M0,100v620" style="stroke: rgb(255, 255, 255); stroke-opacity: 1; stroke-width: 1px;"/><path class="xgrid crisp" transform="translate(1736.7,0)" d="M0,100v620" style="stroke: rgb(255, 255, 255); stroke-opacity: 1; stroke-width: 1px;"/></g><g class="y"><path class="ygrid crisp" transform="translate(0,638.09)" d="M87,0h1833" style="stroke: rgb(255, 255, 255); stroke-opacity: 1; stroke-width: 1px;"/><path class="ygrid crisp" transform="translate(0,554.86)" d="M87,0h1833" style="stroke: rgb(255, 255, 255); stroke-opacity: 1; stroke-width: 1px;"/><path class="ygrid crisp" transform="translate(0,471.63)" d="M87,0h1833" style="stroke: rgb(255, 255, 255); stroke-opacity: 1; stroke-width: 1px;"/><path class="ygrid crisp" transform="translate(0,388.39)" d="M87,0h1833" style="stroke: rgb(255, 255, 255); stroke-opacity: 1; stroke-width: 1px;"/><path class="ygrid crisp" transform="translate(0,305.15999999999997)" d="M87,0h1833" style="stroke: rgb(255, 255, 255); stroke-opacity: 1; stroke-width: 1px;"/><path class="ygrid crisp" transform="translate(0,221.93)" d="M87,0h1833" style="stroke: rgb(255, 255, 255); stroke-opacity: 1; stroke-width: 1px;"/><path class="ygrid crisp" transform="translate(0,138.7)" d="M87,0h1833" style="stroke: rgb(255, 255, 255); stroke-opacity: 1; stroke-width: 1px;"/></g></g><g class="zerolinelayer"><path class="xzl zl crisp" transform="translate(87,0)" d="M0,100v620" style="stroke: rgb(255, 255, 255); stroke-opacity: 1; stroke-width: 2px;"/></g><g class="layer-between"><g class="shapelayer"/><g class="imagelayer"/></g><path class="xlines-below"/><path class="ylines-below"/><g class="overlines-below"/><g class="xaxislayer-below"/><g class="yaxislayer-below"/><g class="overaxes-below"/><g class="overplot"><g class="xy" transform="translate(87,100)" clip-path="url(#clip735b03xyplot)"><g class="scatterlayer mlayer"><g class="trace scatter trace017186" style="stroke-miterlimit: 2; opacity: 1;"><g class="fills"/><g class="errorbars"/><g class="lines"><path class="js-line" d="M0,220.9L18.33,408.5L36.66,454.4L54.99,445.6L73.32,341.26L91.65,415.04L109.98,390.36L128.31,413.47L146.64,258.17L164.97,283.08L183.3,213.84L201.63,239.3L219.96,316.15L238.29,256.86L256.62,189.6L274.95,247.84L293.28,247.51L311.61,208.27L329.94,146.39L348.27,254.15L366.6,234.85L384.93,243.92L403.26,235.28L421.59,263.05L439.92,262.06L458.25,237.02L476.58,260.35L494.91,220.07L513.24,225.28L531.57,229.3L549.9,330.09L568.23,165.67L586.56,163.5L604.89,251.77L623.22,194.9L641.55,182.72L659.88,274.08L678.21,197.22L696.54,268.22L714.87,293.78L733.2,194.28L751.53,231.87L769.86,192.23L788.19,173.07L806.52,239.31L824.85,163.81L843.18,116.01L861.51,179.15L879.84,186.19L898.17,179.47L916.5,125.08L934.83,90.48L953.16,136L971.49,144L989.82,96.07L1008.15,103.13L1026.48,71.84L1044.81,57.8L1063.14,79.66L1081.47,87.65L1099.8,61.46L1118.13,65.66L1136.46,44.05L1154.79,78.39L1173.12,41.19L1191.45,47.76L1209.78,50.91L1228.11,55.79L1246.44,75.32L1264.77,63.99L1283.1,57.64L1301.43,95.87L1319.76,66.72L1338.09,61.35L1356.42,73.44L1374.75,48.44L1393.08,75.68L1411.41,50.86L1429.74,45.41L1448.07,66.14L1466.4,79.93L1484.73,80.08L1503.06,67.87L1521.39,59.79L1539.72,57.73L1558.05,59.92L1576.38,48.8L1594.71,76.27L1613.04,46.27L1631.37,48.85L1649.7,47.06L1658.87,70.26L1668.03,56.14L1677.2,51.07L1686.36,68.25L1695.53,54.65L1704.69,64.9L1713.86,58.5L1723.02,64.15L1732.19,63.91L1741.35,65.83L1750.52,62.89L1759.68,71.44L1768.85,77.73L1778.01,70.73L1787.18,73.56L1796.34,71.13L1805.51,90.87L1814.67,76.21L1823.84,70.82L1833,72.58" style="vector-effect: none; fill: none; stroke: rgb(0, 0, 255); stroke-opacity: 1; stroke-width: 2px; opacity: 1;"/></g><g class="points"/><g class="text"/></g><g class="trace scatter trace06e6fe" style="stroke-miterlimit: 2;"><g class="fills"><g><path class="js-fill" d="M0,136.02L18.33,278.74L36.66,319.81L54.99,308.05L73.32,228.99L91.65,281.6L109.98,261.65L128.31,282.46L146.64,150.84L164.97,176.95L183.3,122.72L201.63,142.95L219.96,199.48L238.29,155.91L256.62,100.34L274.95,151.84L293.28,146.73L311.61,116.34L329.94,78.09L348.27,154.94L366.6,137.36L384.93,143.89L403.26,138.59L421.59,157.69L439.92,156.5L458.25,144.9L476.58,161.98L494.91,130.8L513.24,131.5L531.57,136.07L549.9,223.68L568.23,91.97L586.56,87.72L604.89,153.9L623.22,108.21L641.55,99.42L659.88,174.36L678.21,112.61L696.54,167.94L714.87,186.8L733.2,108.12L751.53,138.94L769.86,114.57L788.19,97.31L806.52,148.12L824.85,94.63L843.18,57.2L861.51,100.41L879.84,109.09L898.17,101.29L916.5,62.85L934.83,43.59L953.16,69.47L971.49,74.35L989.82,51.45L1008.15,49.49L1026.48,39.14L1044.81,33.53L1063.14,38.25L1081.47,42.22L1099.8,31L1118.13,38.58L1136.46,38.08L1154.79,40.85L1173.12,38.72L1191.45,35.86L1209.78,36.55L1264.77,31.03L1283.1,36.38L1301.43,46.64L1319.76,38.04L1338.09,34.89L1356.42,40.69L1374.75,38.8L1393.08,41.69L1411.41,41L1429.74,38.89L1448.07,42.19L1466.4,36.24L1484.73,39.3L1503.06,37.1L1521.39,38.22L1539.72,42.33L1558.05,38.21L1576.38,42.61L1594.71,45.66L1613.04,41.61L1631.37,42.93L1649.7,42.7L1658.87,41.79L1668.03,47.89L1677.2,45.25L1686.36,46.77L1695.53,49.49L1704.69,45.1L1713.86,51.21L1723.02,53.52L1732.19,55.34L1741.35,54.44L1750.52,55.55L1759.68,62.64L1768.85,63.72L1778.01,62.95L1787.18,59.52L1796.34,60.2L1805.51,76.12L1814.67,64.37L1823.84,59.14L1833,59.98L1833,85.18L1823.84,82.5L1814.67,88.05L1805.51,105.63L1796.34,82.05L1787.18,87.59L1778.01,78.51L1768.85,91.74L1759.68,80.24L1750.52,70.23L1741.35,77.22L1732.19,72.49L1723.02,74.79L1713.86,65.8L1704.69,84.7L1695.53,59.8L1686.36,89.73L1677.2,56.89L1668.03,64.38L1658.87,98.73L1649.7,51.41L1631.37,54.76L1613.04,50.93L1594.71,106.87L1576.38,55L1558.05,81.64L1539.72,73.14L1521.39,81.35L1503.06,98.65L1484.73,120.86L1466.4,123.62L1448.07,90.09L1429.74,51.93L1411.41,60.72L1393.08,109.67L1374.75,58.09L1356.42,106.18L1338.09,87.81L1319.76,95.41L1301.43,145.09L1283.1,78.89L1264.77,96.96L1246.44,117.93L1228.11,76.71L1209.78,65.28L1191.45,59.66L1173.12,43.66L1154.79,115.93L1136.46,50.02L1118.13,92.73L1099.8,91.93L1081.47,133.09L1063.14,121.08L1044.81,82.06L1026.48,104.53L1008.15,156.78L989.82,140.7L971.49,213.65L953.16,202.52L934.83,137.38L916.5,187.31L898.17,257.66L879.84,263.3L861.51,257.88L843.18,174.82L824.85,232.99L806.52,330.49L788.19,248.82L769.86,269.89L751.53,324.8L733.2,280.44L714.87,400.77L696.54,368.51L678.21,281.83L659.88,373.8L641.55,266.02L623.22,281.58L604.89,349.64L586.56,239.28L568.23,239.36L549.9,436.5L531.57,322.53L513.24,319.06L494.91,309.35L476.58,358.72L458.25,329.14L439.92,367.63L421.59,368.41L403.26,331.98L384.93,343.95L366.6,332.34L348.27,353.36L329.94,214.69L311.61,300.2L293.28,348.29L274.95,343.84L256.62,278.85L238.29,357.8L219.96,432.81L201.63,335.65L183.3,304.96L164.97,389.22L146.64,365.5L128.31,544.49L109.98,519.07L91.65,548.47L73.32,453.52L54.99,583.16L36.66,589L18.33,538.27L0,305.77Z" style="fill: rgb(211, 211, 211); fill-opacity: 0.5; stroke-width: 0;"/></g></g><g class="errorbars"/><g class="lines"><path class="js-line" d="M0,305.77L18.33,538.27L36.66,589L54.99,583.16L73.32,453.52L91.65,548.47L109.98,519.07L128.31,544.49L146.64,365.5L164.97,389.22L183.3,304.96L201.63,335.65L219.96,432.81L238.29,357.8L256.62,278.85L274.95,343.84L293.28,348.29L311.61,300.2L329.94,214.69L348.27,353.36L366.6,332.34L384.93,343.95L403.26,331.98L421.59,368.41L439.92,367.63L458.25,329.14L476.58,358.72L494.91,309.35L513.24,319.06L531.57,322.53L549.9,436.5L568.23,239.36L586.56,239.28L604.89,349.64L623.22,281.58L641.55,266.02L659.88,373.8L678.21,281.83L696.54,368.51L714.87,400.77L733.2,280.44L751.53,324.8L769.86,269.89L788.19,248.82L806.52,330.49L824.85,232.99L843.18,174.82L861.51,257.88L879.84,263.3L898.17,257.66L916.5,187.31L934.83,137.38L953.16,202.52L971.49,213.65L989.82,140.7L1008.15,156.78L1026.48,104.53L1044.81,82.06L1063.14,121.08L1081.47,133.09L1099.8,91.93L1118.13,92.73L1136.46,50.02L1154.79,115.93L1173.12,43.66L1191.45,59.66L1209.78,65.28L1228.11,76.71L1246.44,117.93L1264.77,96.96L1283.1,78.89L1301.43,145.09L1319.76,95.41L1338.09,87.81L1356.42,106.18L1374.75,58.09L1393.08,109.67L1411.41,60.72L1429.74,51.93L1448.07,90.09L1466.4,123.62L1484.73,120.86L1503.06,98.65L1521.39,81.35L1539.72,73.14L1558.05,81.64L1576.38,55L1594.71,106.87L1613.04,50.93L1631.37,54.76L1649.7,51.41L1658.87,98.73L1668.03,64.38L1677.2,56.89L1686.36,89.73L1695.53,59.8L1704.69,84.7L1713.86,65.8L1723.02,74.79L1732.19,72.49L1741.35,77.22L1750.52,70.23L1759.68,80.24L1768.85,91.74L1778.01,78.51L1787.18,87.59L1796.34,82.05L1805.51,105.63L1814.67,88.05L1823.84,82.5L1833,85.18" style="vector-effect: none; fill: none; stroke: rgb(0, 0, 255); stroke-opacity: 1; stroke-width: 2px; opacity: 1;"/></g><g class="points"/><g class="text"/></g><g class="trace scatter trace075bab" style="stroke-miterlimit: 2;"><g class="fills"/><g class="errorbars"/><g class="lines"><path class="js-line" d="M0,136.02L18.33,278.74L36.66,319.81L54.99,308.05L73.32,228.99L91.65,281.6L109.98,261.65L128.31,282.46L146.64,150.84L164.97,176.95L183.3,122.72L201.63,142.95L219.96,199.48L238.29,155.91L256.62,100.34L274.95,151.84L293.28,146.73L311.61,116.34L329.94,78.09L348.27,154.94L366.6,137.36L384.93,143.89L403.26,138.59L421.59,157.69L439.92,156.5L458.25,144.9L476.58,161.98L494.91,130.8L513.24,131.5L531.57,136.07L549.9,223.68L568.23,91.97L586.56,87.72L604.89,153.9L623.22,108.21L641.55,99.42L659.88,174.36L678.21,112.61L696.54,167.94L714.87,186.8L733.2,108.12L751.53,138.94L769.86,114.57L788.19,97.31L806.52,148.12L824.85,94.63L843.18,57.2L861.51,100.41L879.84,109.09L898.17,101.29L916.5,62.85L934.83,43.59L953.16,69.47L971.49,74.35L989.82,51.45L1008.15,49.49L1026.48,39.14L1044.81,33.53L1063.14,38.25L1081.47,42.22L1099.8,31L1118.13,38.58L1136.46,38.08L1154.79,40.85L1173.12,38.72L1191.45,35.86L1209.78,36.55L1264.77,31.03L1283.1,36.38L1301.43,46.64L1319.76,38.04L1338.09,34.89L1356.42,40.69L1374.75,38.8L1393.08,41.69L1411.41,41L1429.74,38.89L1448.07,42.19L1466.4,36.24L1484.73,39.3L1503.06,37.1L1521.39,38.22L1539.72,42.33L1558.05,38.21L1576.38,42.61L1594.71,45.66L1613.04,41.61L1631.37,42.93L1649.7,42.7L1658.87,41.79L1668.03,47.89L1677.2,45.25L1686.36,46.77L1695.53,49.49L1704.69,45.1L1713.86,51.21L1723.02,53.52L1732.19,55.34L1741.35,54.44L1750.52,55.55L1759.68,62.64L1768.85,63.72L1778.01,62.95L1787.18,59.52L1796.34,60.2L1805.51,76.12L1814.67,64.37L1823.84,59.14L1833,59.98" style="vector-effect: none; fill: none; stroke: rgb(0, 0, 255); stroke-opacity: 1; stroke-width: 2px; opacity: 1;"/></g><g class="points"/><g class="text"/></g></g></g></g><g class="zerolinelayer-above"/><path class="xlines-above crisp" d="M0,0" style="fill: none;"/><path class="ylines-above crisp" d="M0,0" style="fill: none;"/><g class="overlines-above"/><g class="xaxislayer-above"><g class="xtick"><text text-anchor="middle" x="0" y="741" transform="translate(87,0)" style="font-family: 'Open Sans', verdana, arial, sans-serif; font-size: 20px; fill: rgb(42, 63, 95); fill-opacity: 1; white-space: pre;">0</text></g><g class="xtick"><text text-anchor="middle" x="0" y="741" style="font-family: 'Open Sans', verdana, arial, sans-serif; font-size: 20px; fill: rgb(42, 63, 95); fill-opacity: 1; white-space: pre;" transform="translate(270.3,0)">0.1</text></g><g class="xtick"><text text-anchor="middle" x="0" y="741" style="font-family: 'Open Sans', verdana, arial, sans-serif; font-size: 20px; fill: rgb(42, 63, 95); fill-opacity: 1; white-space: pre;" transform="translate(453.6,0)">0.2</text></g><g class="xtick"><text text-anchor="middle" x="0" y="741" style="font-family: 'Open Sans', verdana, arial, sans-serif; font-size: 20px; fill: rgb(42, 63, 95); fill-opacity: 1; white-space: pre;" transform="translate(636.9,0)">0.3</text></g><g class="xtick"><text text-anchor="middle" x="0" y="741" style="font-family: 'Open Sans', verdana, arial, sans-serif; font-size: 20px; fill: rgb(42, 63, 95); fill-opacity: 1; white-space: pre;" transform="translate(820.2,0)">0.4</text></g><g class="xtick"><text text-anchor="middle" x="0" y="741" style="font-family: 'Open Sans', verdana, arial, sans-serif; font-size: 20px; fill: rgb(42, 63, 95); fill-opacity: 1; white-space: pre;" transform="translate(1003.5,0)">0.5</text></g><g class="xtick"><text text-anchor="middle" x="0" y="741" style="font-family: 'Open Sans', verdana, arial, sans-serif; font-size: 20px; fill: rgb(42, 63, 95); fill-opacity: 1; white-space: pre;" transform="translate(1186.8,0)">0.6</text></g><g class="xtick"><text text-anchor="middle" x="0" y="741" style="font-family: 'Open Sans', verdana, arial, sans-serif; font-size: 20px; fill: rgb(42, 63, 95); fill-opacity: 1; white-space: pre;" transform="translate(1370.1,0)">0.7</text></g><g class="xtick"><text text-anchor="middle" x="0" y="741" style="font-family: 'Open Sans', verdana, arial, sans-serif; font-size: 20px; fill: rgb(42, 63, 95); fill-opacity: 1; white-space: pre;" transform="translate(1553.4,0)">0.8</text></g><g class="xtick"><text text-anchor="middle" x="0" y="741" style="font-family: 'Open Sans', verdana, arial, sans-serif; font-size: 20px; fill: rgb(42, 63, 95); fill-opacity: 1; white-space: pre;" transform="translate(1736.7,0)">0.9</text></g><g class="xtick"><text text-anchor="middle" x="0" y="741" style="font-family: 'Open Sans', verdana, arial, sans-serif; font-size: 20px; fill: rgb(42, 63, 95); fill-opacity: 1; white-space: pre;" transform="translate(1920,0)">1</text></g></g><g class="yaxislayer-above"><g class="ytick"><text text-anchor="end" x="86" y="8.75" transform="translate(0,638.09)" style="font-family: 'Open Sans', verdana, arial, sans-serif; font-size: 25px; fill: rgb(42, 63, 95); fill-opacity: 1; white-space: pre;">380</text></g><g class="ytick"><text text-anchor="end" x="86" y="8.75" style="font-family: 'Open Sans', verdana, arial, sans-serif; font-size: 25px; fill: rgb(42, 63, 95); fill-opacity: 1; white-space: pre;" transform="translate(0,554.86)">400</text></g><g class="ytick"><text text-anchor="end" x="86" y="8.75" style="font-family: 'Open Sans', verdana, arial, sans-serif; font-size: 25px; fill: rgb(42, 63, 95); fill-opacity: 1; white-space: pre;" transform="translate(0,471.63)">420</text></g><g class="ytick"><text text-anchor="end" x="86" y="8.75" style="font-family: 'Open Sans', verdana, arial, sans-serif; font-size: 25px; fill: rgb(42, 63, 95); fill-opacity: 1; white-space: pre;" transform="translate(0,388.39)">440</text></g><g class="ytick"><text text-anchor="end" x="86" y="8.75" style="font-family: 'Open Sans', verdana, arial, sans-serif; font-size: 25px; fill: rgb(42, 63, 95); fill-opacity: 1; white-space: pre;" transform="translate(0,305.15999999999997)">460</text></g><g class="ytick"><text text-anchor="end" x="86" y="8.75" style="font-family: 'Open Sans', verdana, arial, sans-serif; font-size: 25px; fill: rgb(42, 63, 95); fill-opacity: 1; white-space: pre;" transform="translate(0,221.93)">480</text></g><g class="ytick"><text text-anchor="end" x="86" y="8.75" style="font-family: 'Open Sans', verdana, arial, sans-serif; font-size: 25px; fill: rgb(42, 63, 95); fill-opacity: 1; white-space: pre;" transform="translate(0,138.7)">500</text></g></g><g class="overaxes-above"/></g></g><g class="polarlayer"/><g class="smithlayer"/><g class="ternarylayer"/><g class="geolayer"/><g class="funnelarealayer"/><g class="pielayer"/><g class="iciclelayer"/><g class="treemaplayer"/><g class="sunburstlayer"/><g class="glimages"/><defs id="topdefs-735b03"><g class="clips"/></defs><g class="layer-above"><g class="imagelayer"/><g class="shapelayer"/></g><g class="infolayer"><g class="g-gtitle"><text class="gtitle" x="100" y="50" text-anchor="start" dy="0em" style="opacity: 1; font-family: 'Open Sans', verdana, arial, sans-serif; font-size: 30px; fill: rgb(42, 63, 95); fill-opacity: 1; white-space: pre;">Convergence Value per λ in CartPole-v1</text></g><g class="g-xtitle"><text class="xtitle" x="1003.5" y="777" text-anchor="middle" style="opacity: 1; font-family: 'Open Sans', verdana, arial, sans-serif; font-size: 25px; fill: rgb(42, 63, 95); fill-opacity: 1; white-space: pre;">λ value</text></g><g class="g-ytitle" transform="translate(1.96875,0)"><text class="ytitle" transform="rotate(-90,21.03125,410)" x="21.03125" y="410" text-anchor="middle" style="opacity: 1; font-family: 'Open Sans', verdana, arial, sans-serif; font-size: 25px; fill: rgb(42, 63, 95); fill-opacity: 1; white-space: pre;">Convergence Value (Mean +- CI 95%)</text></g></g></svg>